<svg  xmlns="http://www.w3.org/2000/svg" width="380" height="98" viewBox="0 0 380 98" class="css-1j8o68f"><defs id="SvgjsDefs10998"><linearGradient id="SvgjsLinearGradient11007"><stop id="SvgjsStop11008" stop-color="#834f2a" offset="0"></stop><stop id="SvgjsStop11009" stop-color="#dba173" offset="0.5"></stop><stop id="SvgjsStop11010" stop-color=" #834F2A" offset="1"></stop></linearGradient><linearGradient id="SvgjsLinearGradient11011"><stop id="SvgjsStop11012" stop-color="#834f2a" offset="0"></stop><stop id="SvgjsStop11013" stop-color="#dba173" offset="0.5"></stop><stop id="SvgjsStop11014" stop-color=" #834F2A" offset="1"></stop></linearGradient><linearGradient id="SvgjsLinearGradient11015"><stop id="SvgjsStop11016" stop-color="#834f2a" offset="0"></stop><stop id="SvgjsStop11017" stop-color="#dba173" offset="0.5"></stop><stop id="SvgjsStop11018" stop-color=" #834F2A" offset="1"></stop></linearGradient></defs><g id="SvgjsG10999" featurekey="symbolContainer" transform="matrix(1,0,0,1,0,0)" fill="url(#SvgjsLinearGradient11007)"><rect width="110" height="98" rx="10"></rect></g><g id="SvgjsG11000" featurekey="monogramFeature-0" transform="matrix(1.575969934463501,0,0,1.575969934463501,16.21846447478691,-13.176230715494096)" fill="#ffffff"><path d="M46.5 58.5 c0.48 0 0.36 1.62 0 1.74 c-3.78 1.26 -9 1.08 -12.6 -3.54 l-9.24 -11.88 c-2.58 -3.36 -5.64 -3.84 -9.84 -3.9 l0 11.64 c0 4.2 2.88 4.92 6.72 5.4 c0.42 0.06 0.12 2.04 -0.36 2.04 l-18.18 0 c-0.48 0 -0.84 -1.98 -0.36 -2.04 c3.06 -0.42 4.98 -1.62 4.98 -5.4 l0 -26.76 c0 -3.96 -2.1 -5.1 -4.98 -5.88 c-0.48 -0.12 -0.18 -2.1 0.36 -2.04 c2.34 0.3 4.98 0.36 6.9 0.36 c4.44 0 8.58 -0.36 11.46 -0.36 c9.06 0 15.12 3.72 15.12 11.1 c0 6.96 -5.64 10.38 -10.68 10.68 l0 0.3 c2.4 0 4.14 1.02 6.78 4.32 l8.94 11.22 c1.86 2.34 3.66 3 4.98 3 z M16.56 38.16 c8.94 0 12.36 -1.56 12.36 -7.56 c0 -6.42 -4.08 -9.6 -9.42 -9.6 c-3.54 0 -4.68 1.44 -4.68 4.8 l0 12.36 l1.74 0 z"></path></g><g id="SvgjsG11001" featurekey="nameFeature-0" transform="matrix(1.3147081136703491,0,0,1.3147081136703491,127.97144619123434,1.5745399925951382)" fill="url(#SvgjsLinearGradient11011)"><path d="M1.5625 40 l-0.019531 -31.523 l10.234 0 c3.0273 0 6.0156 1.0547 8.1836 3.2227 s3.0469 4.1992 3.0469 7.2266 l0 0.97656 c0 2.3438 -0.66406 4.0625 -1.9922 5.9375 s-2.4414 2.4219 -4.5117 3.2031 l7.1094 10.957 l-7.6953 0 l-8.0469 -12.305 l0 12.305 l-6.3086 0 z M7.8516 23.633 l4.5117 0.019531 c1.3086 0 1.9727 -0.33203 2.8906 -1.25 s1.25 -1.9727 1.25 -3.2813 c0 -1.2891 -0.33203 -2.1484 -1.25 -3.0859 s-2.5586 -1.2695 -3.8672 -1.2695 l-3.5352 0 l0 8.8672 z M41.474984375 29.59 l5.5664 0 l-2.7734 -6.543 z M38.896484375 35.1562 l-0.039063 -0.019531 c-0.70313 1.6016 -1.4258 3.1836 -2.1484 4.7852 l-6.7773 0 l14.277 -31.992 l14.316 31.992 l-6.7969 0 c-0.70313 -1.582 -1.4063 -3.1836 -2.1094 -4.7656 l-10.723 0 z M72.9101875 33.7891 l-0.019531 -0.039063 c1.7383 0 3.1836 -1.4453 3.1836 -3.1836 c0 -1.3477 -0.52734 -2.207 -1.6016 -2.5977 c-2.2656 -0.83984 -1.7188 -0.64453 -3.9258 -1.4063 c-2.3242 -0.80078 -4.4727 -2.3828 -5.918 -4.3555 c-0.85938 -1.1719 -1.2891 -2.6172 -1.2891 -4.3555 c0 -2.6172 0.9375 -4.8633 2.8125 -6.7383 s4.1211 -2.8125 6.7578 -2.8125 c2.6172 0 4.8633 0.9375 6.7383 2.8125 s2.8125 4.1211 2.8125 6.7383 l-6.3477 0 c0 -1.7188 -1.4453 -3.1641 -3.1641 -3.1641 c-1.7383 0 -3.1836 1.4453 -3.1836 3.1836 c0 1.1328 0.44922 1.9922 1.3672 2.5781 c1.875 1.2109 1.6602 0.97656 3.9063 1.6406 c2.4219 0.70313 4.6094 2.207 6.1133 4.1406 c0.87891 1.1328 1.3281 2.5977 1.3281 4.375 c0 2.6367 -0.9375 4.8828 -2.8125 6.7578 s-4.1211 2.8125 -6.7383 2.8125 c-2.6367 0 -4.8828 -0.9375 -6.7578 -2.8125 s-2.8125 -4.1211 -2.8125 -6.7578 l6.3672 0 c0 1.7578 1.4258 3.1836 3.1836 3.1836 z M89.599609375 7.93 l15.352 21.055 l15.352 -21.055 l0 32.07 l-6.3086 0 l0 -12.988 l-9.043 12.48 l-9.043 -12.48 l0 12.988 l-6.3086 0 l0 -32.07 z M127.65625 40 l0 -31.484 l6.3086 0 l0 31.484 l-6.3086 0 z M152.021859375 29.59 l5.5664 0 l-2.7734 -6.543 z M149.443359375 35.1562 l-0.039063 -0.019531 c-0.70313 1.6016 -1.4258 3.1836 -2.1484 4.7852 l-6.7773 0 l14.277 -31.992 l14.316 31.992 l-6.7969 0 c-0.70313 -1.582 -1.4063 -3.1836 -2.1094 -4.7656 l-10.723 0 z M177.5195625 8.515999999999998 l6.3086 0 l7.8711 0 l0 6.2891 l-7.8711 0 l0 25.195 l-6.3086 0 l0 -25.195 l-7.8711 0 l0 -6.2891 l7.8711 0 z"></path></g><g id="SvgjsG11002" featurekey="sloganFeature-0" transform="matrix(0.9689903855323792,0,0,0.9689903855323792,128.38265730036403,66.52811519893754)" fill="url(#SvgjsLinearGradient11015)"><path d="M17.59 8.445 l0.016758 1.1737 c0.01832 1.2629 -0.49072 2.489 -1.4333 3.4524 c-0.88466 0.90428 -2.5122 1.966 -5.367 2.2142 l-0.036758 4.6262 l-2.3476 -0.016094 l0.036484 -4.5994 c-2.2324 -0.18141 -4.09 -0.92992 -5.3086 -2.1572 c-0.97334 -0.9804 -1.4991 -2.2306 -1.4804 -3.5202 l0.017129 -1.1737 l2.3474 0.03414 l-0.017012 1.1737 c-0.0095508 0.66232 0.26668 1.2959 0.79912 1.832 c0.98028 0.98734 2.6908 1.5237 4.8134 1.507 c2.1676 -0.01582 3.8956 -0.57064 4.8658 -1.5624 c0.50916 -0.5203 0.77322 -1.1346 0.76394 -1.7765 l-0.017012 -1.1737 z M34.905 9.649 c0.91776 0.9099 0.9102 2.226 0.89856 4.2182 c-0.00091796 0.14832 -0.0016992 0.302 -0.0023438 0.46118 c-0.0044532 1.1823 -0.0075976 2.0366 -0.13172 2.757 c-0.10568 0.6142 -0.34974 1.4995 -1.2436 2.0954 c-1.1321 0.75466 -2.8232 0.77168 -6.5282 0.8087 c-0.57862 0.0057618 -1.1122 0.010078 -1.6046 0.010078 c-2.9354 0 -4.411 -0.15537 -5.3538 -1.0922 c-0.98198 -0.9757 -0.97648 -2.4126 -0.96838 -4.5876 c0.0090234 -2.4268 0.014512 -3.8916 1.2447 -4.801 c1.0614 -0.7845 2.6028 -0.80516 5.9798 -0.85054 l0.67396 -0.0092774 c4.2088 -0.060156 5.9508 -0.085136 7.0354 0.99024 z M33.471000000000004 13.854199999999999 c0.006543 -1.1448 0.013457 -2.3288 -0.20864 -2.5488 c-0.27556 -0.27322 -1.5123 -0.33638 -3.1584 -0.33638 c-0.67736 0 -1.4242 0.010723 -2.2018 0.021836 l-0.67606 0.0092774 c-2.4194 0.032442 -4.1674 0.055976 -4.625 0.39406 c-0.2888 0.21346 -0.2935 1.4744 -0.29898 2.9346 c-0.0050976 1.3559 -0.0099414 2.6366 0.28016 2.9248 c0.4554 0.45254 2.9138 0.42782 5.2914 0.40428 c2.7302 -0.027206 4.7028 -0.046954 5.258 -0.4171 c0.32686 -0.2179 0.33104 -1.3516 0.33692 -2.9208 c0.00052734 -0.16074 0.0014453 -0.316 0.0023632 -0.46588 z M55.087 8.487 l0.041758 5.7 c0.017129 1.2612 -0.49178 2.4856 -1.4332 3.448 c-0.9982 1.0203 -2.9408 2.242 -6.5268 2.2684 c-0.034786 0.0002539 -0.069706 0.00039062 -0.10424 0.00039062 c-2.7146 0 -4.9816 -0.77976 -6.3926 -2.201 c-0.96994 -0.97702 -1.4953 -2.2218 -1.4805 -3.5064 l-0.041992 -5.6918 l2.3476 -0.017402 l0.042246 5.7166 l-0.00013672 0.012813 c-0.0096876 0.66232 0.26668 1.2957 0.799 1.832 c0.98014 0.98734 2.6886 1.5215 4.8136 1.507 c2.1676 -0.015957 3.8956 -0.57078 4.866 -1.5626 c0.50916 -0.5204 0.77336 -1.1346 0.76394 -1.7765 l0 -0.0083789 l-0.04211 -5.7036 z M72.81700000000001 17.557 l1.162 -0.017422 l0.034786 2.3242 l-1.1621 0.017402 c-0.18088 0.002754 -0.38542 0.0058984 -0.6087 0.0058984 c-1.614 0 -4.2026 -0.16008 -5.8378 -1.7712 c-0.72798 -0.71726 -1.1865 -1.629 -1.3698 -2.72 l-4.2054 0 l-0.016602 4.4896 l-2.3246 -0.0086328 l0.037402 -10.127 l0 -1.1635 l0.0043164 0 l0 -0.0043164 l1.1612 0.0043164 l10.951 0 c1.4728 0 3.6638 0.90678 3.6638 3.4048 c0 2.4982 -2.0362 3.405 -3.4048 3.405 l-3.4826 0 c0.12543 0.4252 0.32842 0.77924 0.61734 1.064 c1.1685 1.151 3.608 1.1146 4.7804 1.0969 z M60.851400000000005 13.0714 l10.041 -0.000019531 c0.10148 -0.0035352 0.40426 -0.041718 0.6538 -0.17971 c0.21608 -0.11955 0.43686 -0.32006 0.43686 -0.90076 c0 -0.46692 -0.15799 -0.71972 -0.56382 -0.90166 c-0.36882 -0.16531 -0.77152 -0.17865 -0.77532 -0.17865 l-9.7922 0 l0 2.1608 z M107.78 8.743 l2.9056 0 l-9.017 12.023 l-3.5212 -4.6944 l-3.5206 4.6944 l-9.0178 -12.023 l2.9058 0 l6.1122 8.1492 l2.0678 -2.7574 l-4.044 -5.3918 l2.9058 0 l2.5912 3.4548 l2.5908 -3.4548 l2.9055 0 l-4.0436 5.3918 l2.0682 2.7574 z M116.27539999999999 7.711 l9.1766 12.19 l-2.9508 0 l-2.566 -3.3974 l-7.3197 0 l-2.5286 3.3974 l-2.9177 0 z M114.3762 14.1556 l3.7983 0 l-1.8992 -2.5322 z M139.79 8.445 l0.016758 1.1737 c0.01832 1.2629 -0.49072 2.489 -1.4333 3.4524 c-0.88466 0.90428 -2.5122 1.966 -5.367 2.2142 l-0.036758 4.6262 l-2.3476 -0.016094 l0.036484 -4.5994 c-2.2324 -0.18141 -4.09 -0.92992 -5.3086 -2.1572 c-0.97334 -0.9804 -1.4991 -2.2306 -1.4804 -3.5202 l0.017129 -1.1737 l2.3474 0.03414 l-0.017012 1.1737 c-0.0095508 0.66232 0.26668 1.2959 0.79912 1.832 c0.98028 0.98734 2.6908 1.5237 4.8134 1.507 c2.1676 -0.01582 3.8956 -0.57064 4.8658 -1.5624 c0.50916 -0.5203 0.77322 -1.1346 0.76394 -1.7765 l-0.017012 -1.1737 z M152.04919999999998 8.475 l15.938 0 l0 2.3477 l-6.7954 0 l0 9.0932 l-2.3476 0 l0 -9.0932 l-6.7946 0 l0 -2.3477 z M186.285 9.649 c0.91776 0.9099 0.9102 2.226 0.89856 4.2182 c-0.00091796 0.14832 -0.0016992 0.302 -0.0023438 0.46118 c-0.0044532 1.1823 -0.0075976 2.0366 -0.13172 2.757 c-0.10568 0.6142 -0.34974 1.4995 -1.2436 2.0954 c-1.1321 0.75466 -2.8232 0.77168 -6.5282 0.8087 c-0.57862 0.0057618 -1.1122 0.010078 -1.6046 0.010078 c-2.9354 0 -4.411 -0.15537 -5.3538 -1.0922 c-0.98198 -0.9757 -0.97648 -2.4126 -0.96838 -4.5876 c0.0090234 -2.4268 0.014512 -3.8916 1.2447 -4.801 c1.0614 -0.7845 2.6028 -0.80516 5.9798 -0.85054 l0.67396 -0.0092774 c4.2088 -0.060156 5.9508 -0.085136 7.0354 0.99024 z M184.851 13.854199999999999 c0.006543 -1.1448 0.013457 -2.3288 -0.20864 -2.5488 c-0.27556 -0.27322 -1.5123 -0.33638 -3.1584 -0.33638 c-0.67736 0 -1.4242 0.010723 -2.2018 0.021836 l-0.67606 0.0092774 c-2.4194 0.032442 -4.1674 0.055976 -4.625 0.39406 c-0.2888 0.21346 -0.2935 1.4744 -0.29898 2.9346 c-0.0050976 1.3559 -0.0099414 2.6366 0.28016 2.9248 c0.4554 0.45254 2.9138 0.42782 5.2914 0.40428 c2.7302 -0.027206 4.7028 -0.046954 5.258 -0.4171 c0.32686 -0.2179 0.33104 -1.3516 0.33692 -2.9208 c0.00052734 -0.16074 0.0014453 -0.316 0.0023632 -0.46588 z M201.757 17.619 l13.59 0 l0 2.3477 l-15.938 0 l0 -11.407 l2.3477 0 l0 9.0597 z M226.8754 7.711 l9.1766 12.19 l-2.9508 0 l-2.566 -3.3974 l-7.3197 0 l-2.5286 3.3974 l-2.9177 0 z M224.97620000000003 14.1556 l3.7983 0 l-1.8992 -2.5322 z M254.70000000000002 8.743 l2.9056 0 l-9.017 12.023 l-3.5212 -4.6944 l-3.5206 4.6944 l-9.0178 -12.023 l2.9058 0 l6.1122 8.1492 l2.0678 -2.7574 l-4.044 -5.3918 l2.9058 0 l2.5912 3.4548 l2.5908 -3.4548 l2.9055 0 l-4.0436 5.3918 l2.0682 2.7574 z"></path></g></svg>
