<svg  xmlns="http://www.w3.org/2000/svg" width="320" height="205.4453660316997" viewBox="0 0 320 205.4453660316997" class="css-1j8o68f"><defs id="SvgjsDefs11537"><linearGradient id="SvgjsLinearGradient11544"><stop id="SvgjsStop11545" stop-color="#8f5e25" offset="0"></stop><stop id="SvgjsStop11546" stop-color="#fbf4a1" offset="0.5"></stop><stop id="SvgjsStop11547" stop-color="#8f5e25" offset="1"></stop></linearGradient><linearGradient id="SvgjsLinearGradient11548"><stop id="SvgjsStop11549" stop-color="#8f5e25" offset="0"></stop><stop id="SvgjsStop11550" stop-color="#fbf4a1" offset="0.5"></stop><stop id="SvgjsStop11551" stop-color="#8f5e25" offset="1"></stop></linearGradient><linearGradient id="SvgjsLinearGradient11552"><stop id="SvgjsStop11553" stop-color="#8f5e25" offset="0"></stop><stop id="SvgjsStop11554" stop-color="#fbf4a1" offset="0.5"></stop><stop id="SvgjsStop11555" stop-color="#8f5e25" offset="1"></stop></linearGradient></defs><g id="SvgjsG11538" featurekey="symbolFeature-0" transform="matrix(2.3865809440612793,0,0,2.3865809440612793,84.3610281815233,-20.875373183145168)" fill="url(#SvgjsLinearGradient11544)"><title xmlns="http://www.w3.org/2000/svg">Artboard 22</title><path xmlns="http://www.w3.org/2000/svg" d="M29.57,42H20.43a5.42,5.42,0,0,0-5.3,4.38H34.87A5.42,5.42,0,0,0,29.57,42Z"></path><path xmlns="http://www.w3.org/2000/svg" d="M37,47H13a1,1,0,0,0-1,1v5a1,1,0,0,0,1,1H37a1,1,0,0,0,1-1V48A1,1,0,0,0,37,47Z"></path><path xmlns="http://www.w3.org/2000/svg" d="M33,11l-4,1.76a.81.81,0,0,0-.42,1.07L29,14.93l5.49-2.41L34,11.43A.81.81,0,0,0,33,11Z"></path><path xmlns="http://www.w3.org/2000/svg" d="M33.44,25l5.49-2.41L51.41,51a.94.94,0,0,1-.48,1.24l-3.77,1.66a.94.94,0,0,1-1.24-.48Z"></path><path xmlns="http://www.w3.org/2000/svg" d="M26.67,17.05l1.83-.8,3.62,8.24-1.83.8.4.92L27,27.83a1,1,0,0,1-1.29-.5l-4-9.19a1,1,0,0,1,.5-1.29l3.68-1.62Z"></path><rect xmlns="http://www.w3.org/2000/svg" x="30.97" y="14.26" width="6" height="9" transform="translate(-4.68 15.23) rotate(-23.69)"></rect><path xmlns="http://www.w3.org/2000/svg" d="M41.91,9.48l3.87,8.81a1.19,1.19,0,0,1-.61,1.57l-3.49,1.53-.4-.92-1.83.8L35.83,13l1.83-.8-.8-1.83,3.49-1.53A1.19,1.19,0,0,1,41.91,9.48Z"></path></g><g id="SvgjsG11539" featurekey="nameFeature-0" transform="matrix(1.7847051620483398,0,0,1.7847051620483398,-5.716408020906344,108.58450174679075)" fill="url(#SvgjsLinearGradient11548)"><path d="M26.953 40 l-8.8281 0 l-7.4805 -12.305 l0 12.305 l-7.4414 0 l0 -28.711 l10.996 0 c6.875 0 9.6094 3.9453 9.6094 8.8672 c0 4.043 -2.3828 6.4063 -5.8203 7.1484 z M16.719 20.234 c0 -1.7578 -0.99609 -2.8711 -3.75 -2.8711 l-2.3242 0 l0 5.7617 l2.3242 0 c2.7539 0 3.75 -1.1328 3.75 -2.8906 z M48.8909375 40 l-1.8555 -5.3125 l-11.484 0 l-1.8359 5.3125 l-7.5586 0 l10.566 -28.711 l9.1602 0 l10.566 28.711 l-7.5586 0 z M37.6799375 28.555 l7.2266 0 l-3.6133 -10.391 z M68.81634375 40.39063 c-6.2891 0 -11.406 -3.0273 -12.207 -8.7891 l7.7148 -1.7578 c0.21484 3.125 2.168 4.5898 4.8047 4.5898 c1.9141 0 3.0859 -0.91797 3.0859 -2.5586 c0 -2.1484 -2.7539 -2.9492 -5.957 -4.043 c-4.043 -1.3477 -8.5742 -3.0273 -8.5742 -8.3203 c0 -5.3516 4.3359 -8.6328 10.527 -8.6328 c5.0391 0 10.527 1.9922 11.719 7.9297 l-7.1484 1.7578 c-0.41016 -2.5977 -1.7773 -3.7305 -4.082 -3.7305 c-2.0508 0 -3.4961 0.80078 -3.4961 2.4805 c0 1.6016 2.5781 2.2461 5.5273 3.2031 c4.1211 1.3672 9.1992 3.2422 9.1992 8.9258 c0 6.3086 -5.3125 8.9453 -11.113 8.9453 z M118.05875 40 l-7.4414 0 l-1.875 -20.234 l-6.0742 20.234 l-4.9219 0 l-6.0742 -20.332 l-1.8945 20.332 l-7.4805 0 l2.5195 -28.711 l10.879 0 l4.4922 14.668 l4.5508 -14.668 l10.84 0 z M122.2421625 40 l0 -28.711 l7.4414 0 l0 28.711 l-7.4414 0 z M154.82453125 40 l-1.8555 -5.3125 l-11.484 0 l-1.8359 5.3125 l-7.5586 0 l10.566 -28.711 l9.1602 0 l10.566 28.711 l-7.5586 0 z M143.61353125 28.555 l7.2266 0 l-3.6133 -10.391 z M182.5039375 11.289000000000001 l0 6.4648 l-6.4844 0 l0 22.246 l-7.3633 0 l0 -22.246 l-6.5039 0 l0 -6.4648 l20.352 0 z"></path></g><g id="SvgjsG11540" featurekey="sloganFeature-0" transform="matrix(0.996094822883606,0,0,0.996094822883606,47.83484833402849,185.32892217242448)" fill="url(#SvgjsLinearGradient11552)"><path d="M12.412 5.888999999999999 l-4.6387 7.3535 l0 6.7578 l-2.9395 0 l0 -6.6895 l-4.668 -7.4219 l3.2422 0 l2.8809 4.8047 l2.8906 -4.8047 l3.2324 0 z M23.04934453125 20.19531 c-4.1504 0 -7.2168 -2.832 -7.2168 -7.2559 c0 -4.4336 3.0664 -7.2461 7.2168 -7.2461 c4.1406 0 7.207 2.8125 7.207 7.2461 c0 4.4238 -3.0664 7.2559 -7.207 7.2559 z M23.04934453125 17.5098 c2.4316 0 4.2969 -1.709 4.2969 -4.5703 c0 -2.8516 -1.8652 -4.5508 -4.2969 -4.5508 s-4.2969 1.6992 -4.2969 4.5508 c0 2.8613 1.8652 4.5703 4.2969 4.5703 z M40.5810734375 20.19531 c-3.0957 0 -5.5176 -1.582 -5.5176 -5.1367 l0 -9.1699 l2.9297 0 l0 8.7695 c0 2.1484 1.1426 2.9492 2.5879 2.9492 c1.4551 0 2.6074 -0.81055 2.6074 -2.9492 l0 -8.7695 l2.9297 0 l0 9.1699 c0 3.5547 -2.4316 5.1367 -5.5371 5.1367 z M59.33345234375 20 l-3.6719 -6.2109 l-0.84961 0 l0 6.2109 l-2.9297 0 l0 -14.111 l5.1172 0 c3.1934 0 4.541 1.8848 4.541 4.2188 c0 1.8945 -1.0742 3.125 -2.9883 3.5352 l4.248 6.3574 l-3.4668 0 z M54.81205234375 8.32 l0 3.3691 l1.7285 0 c1.5625 0 2.1973 -0.66406 2.1973 -1.6797 c0 -1.0059 -0.63477 -1.6895 -2.1973 -1.6895 l-1.7285 0 z M77.24854140625 20 l-3.6914 -14.111 l3.0469 0 l2.7539 10.684 l3.1543 -10.684 l2.4707 0 l3.1348 10.684 l2.7832 -10.684 l3.0371 0 l-3.6914 14.111 l-3.7695 0 l-2.7344 -8.7207 l-2.7246 8.7207 l-3.7695 0 z M108.0424609375 20 l-1.0254 -2.9102 l-5.9277 0 l-1.0254 2.9102 l-2.998 0 l5.1953 -14.111 l3.584 0 l5.1953 14.111 l-2.998 0 z M101.9482609375 14.6387 l4.209 0 l-2.0996 -5.9863 z M126.14979296875 5.888999999999999 l-4.6387 7.3535 l0 6.7578 l-2.9395 0 l0 -6.6895 l-4.668 -7.4219 l3.2422 0 l2.8809 4.8047 l2.8906 -4.8047 l3.2324 0 z M146.32103515625 5.888999999999999 l0 2.5781 l-3.3496 0 l0 11.533 l-2.9004 0 l0 -11.533 l-3.3691 0 l0 -2.5781 l9.6191 0 z M157.1924109375 20.19531 c-4.1504 0 -7.2168 -2.832 -7.2168 -7.2559 c0 -4.4336 3.0664 -7.2461 7.2168 -7.2461 c4.1406 0 7.207 2.8125 7.207 7.2461 c0 4.4238 -3.0664 7.2559 -7.207 7.2559 z M157.1924109375 17.5098 c2.4316 0 4.2969 -1.709 4.2969 -4.5703 c0 -2.8516 -1.8652 -4.5508 -4.2969 -4.5508 s-4.2969 1.6992 -4.2969 4.5508 c0 2.8613 1.8652 4.5703 4.2969 4.5703 z M180.0293375 17.4121 l4.4238 0 l0 2.5879 l-7.3535 0 l0 -14.111 l2.9297 0 l0 11.523 z M198.53806640625 20 l-1.0254 -2.9102 l-5.9277 0 l-1.0254 2.9102 l-2.998 0 l5.1953 -14.111 l3.584 0 l5.1953 14.111 l-2.998 0 z M192.44386640625 14.6387 l4.209 0 l-2.0996 -5.9863 z M208.3544984375 20 l-3.6914 -14.111 l3.0469 0 l2.7539 10.684 l3.1543 -10.684 l2.4707 0 l3.1348 10.684 l2.7832 -10.684 l3.0371 0 l-3.6914 14.111 l-3.7695 0 l-2.7344 -8.7207 l-2.7246 8.7207 l-3.7695 0 z"></path></g></svg>
