<svg  xmlns="http://www.w3.org/2000/svg" width="398" height="128.125" viewBox="0 0 398 128.125" class="css-1j8o68f"><defs id="SvgjsDefs1617"><linearGradient id="SvgjsLinearGradient1626"><stop id="SvgjsStop1627" stop-color="#8f5e25" offset="0"></stop><stop id="SvgjsStop1628" stop-color="#fbf4a1" offset="0.5"></stop><stop id="SvgjsStop1629" stop-color="#8f5e25" offset="1"></stop></linearGradient><linearGradient id="SvgjsLinearGradient1630"><stop id="SvgjsStop1631" stop-color="#8f5e25" offset="0"></stop><stop id="SvgjsStop1632" stop-color="#fbf4a1" offset="0.5"></stop><stop id="SvgjsStop1633" stop-color="#8f5e25" offset="1"></stop></linearGradient><linearGradient id="SvgjsLinearGradient1634"><stop id="SvgjsStop1635" stop-color="#8f5e25" offset="0"></stop><stop id="SvgjsStop1636" stop-color="#fbf4a1" offset="0.5"></stop><stop id="SvgjsStop1637" stop-color="#8f5e25" offset="1"></stop></linearGradient><linearGradient id="SvgjsLinearGradient1638"><stop id="SvgjsStop1639" stop-color="#8f5e25" offset="0"></stop><stop id="SvgjsStop1640" stop-color="#fbf4a1" offset="0.5"></stop><stop id="SvgjsStop1641" stop-color="#8f5e25" offset="1"></stop></linearGradient></defs><g id="SvgjsG1618" featurekey="symbolContainer" transform="matrix(1.3236052989959717,0,0,1.3236052989959717,0,0)" fill="url(#SvgjsLinearGradient1626)"><path xmlns="http://www.w3.org/2000/svg" d="M74 .7h22.2v32.8h.6V0H74v.7zM.7 33.5V.7h22.1V0H0v33.5h.7zm22.1 62.7H.7V63.3H0v33.5h22.8v-.6zm73.4-32.9v32.9H74v.6h22.8V63.3h-.6z"></path></g><g id="SvgjsG1619" featurekey="monogramFeature-0" transform="matrix(2.0833334922790527,0,0,2.0833334922790527,21.749993173848704,-20.998068582356254)" fill="url(#SvgjsLinearGradient1630)"><path d="M34.86 58.44 c-1.2 1.44 -2.58 1.92 -4.14 1.92 c-2.76 0 -4.32 -2.58 -4.32 -5.88 c0.18 -6.12 1.32 -13.2 -7.32 -13.2 l-4.98 0 l-2.4 14.64 c-0.42 2.34 -0.18 2.58 1.74 2.58 c-0.66 1.26 -2.16 1.92 -3.36 1.92 c-0.72 0 -1.38 -0.12 -1.86 -0.36 c-0.6 0.24 -1.26 0.36 -1.98 0.36 c-1.2 0 -2.52 -0.66 -2.76 -1.92 c1.92 0 2.22 -0.24 2.58 -2.58 l4.68 -30.3 c0.42 -2.34 0.18 -2.58 -1.74 -2.58 c0.66 -1.26 2.16 -1.92 3.36 -1.92 c0.72 0 1.5 0.24 1.98 0.66 c1.08 -0.66 0.48 -0.66 7.8 -0.66 c10.08 -0.06 14.94 2.82 14.94 8.34 c0 5.94 -4.32 9.72 -10.08 10.86 c4.56 1.2 5.76 4.98 5.28 13.08 c-0.24 3.66 0.06 5.04 2.58 5.04 z M14.34 39.480000000000004 l4.2 0 c6.24 0 11.22 -4.14 11.22 -9.9 c0.06 -3.78 -2.34 -6.66 -8.1 -6.66 c-3.24 0 -5.04 1.62 -5.52 4.8 z"></path></g><g id="SvgjsG1620" featurekey="nameFeature-0" transform="matrix(1.2294713258743286,0,0,1.2294713258743286,146.8253664820615,12.72500094364025)" fill="url(#SvgjsLinearGradient1634)"><path d="M26.251 38.1392 l0.0032031 -0.00085936 c0.29359 0 0.4604 0.2248 0.4604 0.4896 c0 0.8676 -1.7312 1.7596 -3.804 1.7596 c-10.111 0 -2.0044 -12.537 -12.194 -12.537 l-1.5308 0 l0 9.8228 c0 0.6052 0.5284 1.1444 1.2684 1.1444 l0.72558 0 c0.3516 0 0.6056 0.25359 0.6056 0.5764 c0 0.3516 -0.25398 0.6052 -0.6056 0.6052 l-9.6136 0 c-0.3516 0 -0.6052 -0.25359 -0.6052 -0.6052 c0 -0.32281 0.25359 -0.5764 0.6052 -0.5764 l0.72558 0 c0.7344 0 1.2688 -0.5244 1.2688 -1.1324 l-0.005586 -21.719 c0 -0.6108 -0.5284 -1.144 -1.2684 -1.144 l-0.72558 0 c-0.3516 0 -0.6056 -0.25398 -0.6056 -0.5768 c0 -0.3516 0.25398 -0.6052 0.6056 -0.6052 l11.684 0 c6.3572 0 9.7944 2.3944 9.7944 6.6344 c0 3.4896 -2.7308 5.968 -7.348 6.8032 c9.7408 1.74 4.9984 11.725 8.6936 11.725 c1.0304 0 1.3144 -0.6636 1.866 -0.6636 z M9.1856 26.639 l2.4164 0 c4.302 0 5.4828 -3.2056 5.4828 -6.1916 c0 -3.0648 -1.6152 -5.626 -5.8964 -5.626 l-0.73398 0 c-0.7344 0 -1.2688 0.5332 -1.2688 1.1324 l0 10.685 z M58.693000000000005 38.818 c0.32281 0 0.6056 0.25359 0.6056 0.6052 c0 0.32281 -0.28281 0.5764 -0.60564 0.5764 l-11.324 0 c-0.32281 0 -0.60564 -0.25359 -0.60564 -0.5764 c0 -0.3516 0.28281 -0.6052 0.60564 -0.6052 l1.44 0 c0.8144 0 1.292 -0.6204 0.96004 -1.4 l-2.2732 -5.4428 l-9.4308 0 l-2.1912 5.4428 c-0.28 0.7316 0.16281 1.4 0.96 1.4 l1.44 0 c0.32281 0 0.60564 0.25359 0.60564 0.6052 c0 0.32281 -0.28281 0.5764 -0.60564 0.5764 l-6.6248 0 c-0.32281 0 -0.60564 -0.25359 -0.60564 -0.5764 c0 -0.3516 0.28281 -0.6052 0.60564 -0.6052 l0.96 0 c1.04 0 1.4908 -0.52 1.84 -1.4 l9.7296 -23.985 l1.6456 0 l10.029 24.025 c0.30879 0.72 0.84 1.36 1.96 1.36 l0.88 0 z M38.540400000000005 30.822 l8.4616 0 l-4.3044 -10.324 z M74.684 40.4028 c-5.316 0 -9.2256 -3.048 -9.2256 -6.6192 c0 -1.8592 1.2372 -2.8152 2.5116 -2.8152 c1.0924 0 2.2288 0.7184 2.2288 2.1488 c0 1.4428 -1.4112 1.9972 -1.4112 2.9972 c0 1.782 2.974 3.0552 5.338 3.0552 c3.244 0 6.382 -1.5736 6.382 -5.102 c0 -6.2716 -14.403 -3.6536 -14.403 -13.229 c0 -5.0924 4.3436 -7.6012 9.9036 -7.6012 c4.7364 0 8.9656 2.6496 8.9656 6.1048 c0 1.946 -1.2372 2.9308 -2.4828 2.9308 c-1.1216 0 -2.258 -0.7476 -2.258 -2.178 c0 -1.5584 1.382 -1.8812 1.382 -2.8812 c0 -1.6952 -2.974 -2.7436 -5.3092 -2.7436 c-3.04 0 -5.9296 1.1848 -5.9296 4.6496 c0 5.866 15.193 3.7708 15.193 13.345 c0 4.0208 -3.8304 7.938 -10.886 7.938 z M108.179 40.2068 l-1.6451 0 l-9.8496 -23.868 l0 21.234 c0 0.6428 0.494 1.2456 1.2748 1.2456 l0.72558 0 c0.3516 0 0.6056 0.25359 0.6056 0.6052 c0 0.32281 -0.25398 0.5764 -0.6056 0.5764 l-5.414 0 c-0.3516 0 -0.6056 -0.25359 -0.6056 -0.5764 c0 -0.3516 0.25398 -0.6052 0.6056 -0.6052 l0.72558 0 c0.7808 0 1.2748 -0.6028 1.2748 -1.2456 l0 -21.505 c0 -0.6428 -0.494 -1.2456 -1.2748 -1.2456 l-0.72558 0 c-0.3516 0 -0.6056 -0.25398 -0.6056 -0.6056 c0 -0.32281 0.25398 -0.5764 0.6056 -0.5764 l8.2744 0 l8.004 19.324 l7.5724 -19.324 l7.9792 0 c0.3516 0 0.6056 0.25359 0.6056 0.6052 c0 0.32281 -0.25398 0.5768 -0.6056 0.5768 l-0.72558 0 c-0.7808 0 -1.2744 0.6028 -1.2744 1.2456 l0.005586 21.505 c0 0.6428 0.4936 1.2456 1.2744 1.2456 l0.72558 0 c0.3516 0 0.6052 0.25359 0.6052 0.5764 c0 0.3516 -0.25359 0.6052 -0.6052 0.6052 l-9.6192 0 c-0.3516 0 -0.6052 -0.25359 -0.6052 -0.6052 c0 -0.32281 0.25359 -0.5764 0.6052 -0.5764 l0.72558 0 c0.766 0 1.2568 -0.5796 1.274 -1.2108 l-0.005586 -21.23 z  M142.21900000000002 38.818 c0.3516 0 0.60516 0.25316 0.60516 0.57596 c0 0.3516 -0.25398 0.6052 -0.6056 0.6052 l-9.6136 0 c-0.3516 0 -0.6052 -0.25359 -0.6052 -0.6052 c0 -0.32281 0.25359 -0.5764 0.6052 -0.5764 l0.72558 0 c0.7344 0 1.2688 -0.5244 1.2688 -1.1324 l-0.005586 -21.719 c0 -0.6108 -0.5284 -1.144 -1.2684 -1.144 l-0.72558 0 c-0.3516 0 -0.6056 -0.25398 -0.6056 -0.5768 c0 -0.3516 0.25398 -0.6052 0.6056 -0.6052 l9.6136 0 c0.3516 0 0.6056 0.25359 0.6056 0.6052 c0 0.32281 -0.25398 0.5768 -0.6056 0.5768 l-0.72558 0 c-0.7344 0 -1.2688 0.5332 -1.2688 1.1324 l0.0060156 21.719 c0 0.6052 0.5284 1.1444 1.2684 1.1444 l0.72558 0 z M175.89300000000003 38.818 c0.32281 0 0.6056 0.25359 0.6056 0.6052 c0 0.32281 -0.28281 0.5764 -0.60564 0.5764 l-11.324 0 c-0.32281 0 -0.60564 -0.25359 -0.60564 -0.5764 c0 -0.3516 0.28281 -0.6052 0.60564 -0.6052 l1.44 0 c0.8144 0 1.292 -0.6204 0.96004 -1.4 l-2.2732 -5.4428 l-9.4308 0 l-2.1912 5.4428 c-0.28 0.7316 0.16281 1.4 0.96 1.4 l1.44 0 c0.32281 0 0.60564 0.25359 0.60564 0.6052 c0 0.32281 -0.28281 0.5764 -0.60564 0.5764 l-6.6248 0 c-0.32281 0 -0.60564 -0.25359 -0.60564 -0.5764 c0 -0.3516 0.28281 -0.6052 0.60564 -0.6052 l0.96 0 c1.04 0 1.4908 -0.52 1.84 -1.4 l9.7296 -23.985 l1.6456 0 l10.029 24.025 c0.30879 0.72 0.84 1.36 1.96 1.36 l0.88 0 z M155.74040000000002 30.822 l8.4616 0 l-4.3044 -10.324 z M204.294 13.64 l0.00082032 7.0936 c0 0.3516 -0.25359 0.6056 -0.6052 0.6056 c-0.32281 0 -0.5768 -0.25398 -0.5768 -0.6056 l0 -0.66762 c0 -2.76 -1.64 -5.244 -4.92 -5.244 l-1.1492 0 c-0.7344 0 -1.2688 0.5332 -1.2688 1.1324 l0.005586 21.719 c0 0.6052 0.5284 1.1444 1.2684 1.1444 l0.72558 0 c0.3516 0 0.6056 0.25359 0.6056 0.5764 c0 0.3516 -0.25398 0.6052 -0.6056 0.6052 l-9.6136 0 c-0.3516 0 -0.6056 -0.25359 -0.6056 -0.6052 c0 -0.32281 0.25398 -0.5764 0.6056 -0.5764 l0.72558 0 c0.7344 0 1.2688 -0.5244 1.2688 -1.1324 l-0.0060156 -21.719 c0 -0.6108 -0.5284 -1.144 -1.2684 -1.144 l-0.92281 0 c-3.3904 0 -5.1408 2.3736 -5.1408 5.4648 l0 0.4468 c0 0.3516 -0.25398 0.6056 -0.6056 0.6056 c-0.32281 0 -0.5768 -0.25398 -0.5768 -0.6056 l0 -7.094 l22.659 0 z"></path></g><g id="SvgjsG1621" featurekey="sloganFeature-0" transform="matrix(1.1660977602005005,0,0,1.1660977602005005,147.3091720588672,75.37656505172453)" fill="url(#SvgjsLinearGradient1638)"><path d="M14.38 6 c0.24 0 0.3 0.64 0.06 0.68 c-0.78 0.12 -1.46 0.68 -2.38 2.12 l-3.2 5 l0 3.72 c0 1.4 0.8 1.64 2.04 1.8 c0.14 0.02 0.04 0.68 -0.12 0.68 l-6.26 0 c-0.16 0 -0.26 -0.66 -0.12 -0.68 c1.32 -0.18 2.06 -0.44 2.06 -1.8 l0 -3.64 l-3.36 -5.06 c-0.92 -1.38 -1.48 -2 -2.34 -2.14 c-0.26 -0.04 -0.2 -0.68 0.06 -0.68 l5.28 0 c0.26 0 0.3 0.64 0.06 0.68 c-0.88 0.14 -1.22 0.82 -0.36 2.12 l2.54 3.78 l2.44 -3.78 c0.84 -1.3 0.34 -1.96 -0.72 -2.12 c-0.28 -0.04 -0.2 -0.68 0.04 -0.68 l4.28 0 z M23.520000000000003 20.32 c-4.16 0 -7.22 -3.08 -7.22 -7.24 c0 -4.04 2.88 -7.4 7.26 -7.4 c4.18 0 7.22 3.06 7.22 7.22 c0 4.06 -2.86 7.42 -7.26 7.42 z M24.3 18.96 c1.76 0 4.1 -1.16 4.1 -4.94 c0 -4.04 -2.74 -6.98 -5.62 -6.98 c-1.76 0 -4.08 1.16 -4.08 4.92 c0 4.08 2.74 7 5.6 7 z M40.260000000000005 20.32 c-2.82 0 -5.98 -1.5 -5.98 -5.56 l0 -6.28 c0 -1.26 -0.64 -1.68 -1.62 -1.8 c-0.16 -0.02 -0.04 -0.68 0.12 -0.68 l5.46 0 c0.16 0 0.28 0.66 0.12 0.68 c-0.8 0.1 -1.6 0.4 -1.6 1.8 l0 6.38 c0 2.8 1.62 4.1 3.74 4.1 c2.18 0 3.92 -1.3 3.92 -4.1 l0 -6.38 c0 -1.3 -0.74 -1.66 -1.72 -1.8 c-0.14 -0.02 -0.04 -0.68 0.12 -0.68 l4.5 0 c0.14 0 0.26 0.66 0.1 0.68 c-0.8 0.1 -1.6 0.4 -1.6 1.8 l0 6.26 c0 3.68 -2.38 5.58 -5.56 5.58 z M63.7 19.5 c0.16 0 0.12 0.54 0 0.58 c-1.26 0.42 -3 0.36 -4.2 -1.18 l-3.08 -3.96 c-0.86 -1.12 -1.88 -1.28 -3.28 -1.3 l0 3.88 c0 1.4 0.96 1.64 2.24 1.8 c0.14 0.02 0.04 0.68 -0.12 0.68 l-6.06 0 c-0.16 0 -0.28 -0.66 -0.12 -0.68 c1.02 -0.14 1.66 -0.54 1.66 -1.8 l0 -8.92 c0 -1.32 -0.7 -1.7 -1.66 -1.96 c-0.16 -0.04 -0.06 -0.7 0.12 -0.68 c0.78 0.1 1.66 0.12 2.3 0.12 c1.48 0 2.86 -0.12 3.82 -0.12 c3.02 0 5.04 1.24 5.04 3.7 c0 2.32 -1.88 3.46 -3.56 3.56 l0 0.1 c0.8 0 1.38 0.34 2.26 1.44 l2.98 3.74 c0.62 0.78 1.22 1 1.66 1 z M53.72 12.719999999999999 c2.98 0 4.12 -0.52 4.12 -2.52 c0 -2.14 -1.36 -3.2 -3.14 -3.2 c-1.18 0 -1.56 0.48 -1.56 1.6 l0 4.12 l0.58 0 z M90.30000000000001 6 c0.26 0 0.32 0.64 0.06 0.68 c-0.8 0.12 -1.42 0.42 -2.08 2.12 l-3.02 7.84 c-0.64 1.66 -0.96 2.58 -0.96 3.36 c0 0.12 -1.4 0.44 -1.46 0.3 l-3.14 -8 l-1.88 4.34 c-0.72 1.66 -0.96 2.56 -0.96 3.36 c0 0.12 -1.42 0.44 -1.48 0.3 l-4.56 -11.48 c-0.68 -1.72 -1.28 -2.02 -2.06 -2.14 c-0.26 -0.04 -0.2 -0.68 0.06 -0.68 l5.2 0 c0.26 0 0.3 0.64 0.06 0.68 c-0.92 0.16 -1.4 0.58 -0.8 2.12 l3.16 8.16 l2.04 -4.72 c0.46 -1.06 0.52 -1.7 -0.02 -3.08 c-0.74 -1.9 -1.26 -2.34 -1.78 -2.48 c-0.22 -0.06 -0.2 -0.68 0.06 -0.68 l3.98 0 c0.2 0 0.26 0.06 0.26 0.16 c0 0.26 -0.88 0.88 -0.2 2.64 l3.08 8 l3.04 -8 c0.66 -1.72 0 -1.94 -0.96 -2.12 c-0.22 -0.04 -0.18 -0.68 0.06 -0.68 l4.3 0 z M106.56000000000002 19.32 c0.28 0.04 0.2 0.68 -0.04 0.68 l-5.28 0 c-0.26 0 -0.28 -0.64 -0.06 -0.68 c0.74 -0.14 1.54 -0.4 0.8 -2.12 l-0.22 -0.5 c-0.2 -0.48 -0.54 -0.52 -1.14 -0.52 l-4.08 0 c-0.6 0 -0.94 0.04 -1.14 0.52 l-0.2 0.5 c-0.7 1.72 0.06 1.98 1.02 2.12 c0.26 0.04 0.2 0.68 -0.06 0.68 l-4.32 0 c-0.24 0 -0.3 -0.64 -0.06 -0.68 c0.82 -0.14 1.3 -0.42 2.04 -2.12 l3.38 -7.76 c0.78 -1.76 1.02 -2.58 1.02 -3.34 c0 -0.12 1.4 -0.44 1.46 -0.3 l4.88 11.38 c0.72 1.7 1.2 2.02 2 2.14 z M100.48000000000002 15.059999999999999 c0.28 0 0.58 -0.04 0.46 -0.32 l-2.34 -5.6 l-2.36 5.6 c-0.12 0.28 0.18 0.32 0.46 0.32 l3.78 0 z M121.62000000000002 6 c0.24 0 0.3 0.64 0.06 0.68 c-0.78 0.12 -1.46 0.68 -2.38 2.12 l-3.2 5 l0 3.72 c0 1.4 0.8 1.64 2.04 1.8 c0.14 0.02 0.04 0.68 -0.12 0.68 l-6.26 0 c-0.16 0 -0.26 -0.66 -0.12 -0.68 c1.32 -0.18 2.06 -0.44 2.06 -1.8 l0 -3.64 l-3.36 -5.06 c-0.92 -1.38 -1.48 -2 -2.34 -2.14 c-0.26 -0.04 -0.2 -0.68 0.06 -0.68 l5.28 0 c0.26 0 0.3 0.64 0.06 0.68 c-0.88 0.14 -1.22 0.82 -0.36 2.12 l2.54 3.78 l2.44 -3.78 c0.84 -1.3 0.34 -1.96 -0.72 -2.12 c-0.28 -0.04 -0.2 -0.68 0.04 -0.68 l4.28 0 z M130.12000000000003 20 c-0.18 0 -0.3 -0.64 -0.14 -0.66 c1.38 -0.18 2.3 -0.46 2.3 -1.54 l0 -9.86 c0 -0.5 -0.18 -0.66 -0.66 -0.66 l-0.54 0 c-1.9 0 -2.96 0.44 -3.36 1.3 c-0.18 0.4 -0.86 0.34 -0.78 0 c0.18 -0.72 0.34 -1.34 0.46 -2.4 c0.04 -0.38 0.26 -0.36 0.62 -0.32 c0.92 0.1 1.76 0.14 5.56 0.14 s5.14 -0.04 6.1 -0.14 c0.36 -0.04 0.7 -0.06 0.58 0.32 c-0.3 0.94 -0.5 1.68 -0.62 2.4 c-0.06 0.34 -0.6 0.36 -0.68 0 c-0.2 -0.84 -1.08 -1.3 -2.8 -1.3 l-0.62 0 c-0.48 0 -0.78 0.16 -0.78 0.66 l0 9.86 c0 1.08 0.92 1.36 2.3 1.54 c0.16 0.02 0.04 0.66 -0.14 0.66 l-6.8 0 z M149.20000000000002 20.32 c-4.16 0 -7.22 -3.08 -7.22 -7.24 c0 -4.04 2.88 -7.4 7.26 -7.4 c4.18 0 7.22 3.06 7.22 7.22 c0 4.06 -2.86 7.42 -7.26 7.42 z M149.98000000000002 18.96 c1.76 0 4.1 -1.16 4.1 -4.94 c0 -4.04 -2.74 -6.98 -5.62 -6.98 c-1.76 0 -4.08 1.16 -4.08 4.92 c0 4.08 2.74 7 5.6 7 z M162.16000000000003 20.04 c-0.2 0.02 -0.28 -0.68 -0.12 -0.72 c1.16 -0.3 2.06 -0.48 2.06 -1.96 l0 -8.88 c0 -1.4 -0.82 -1.68 -1.68 -1.8 c-0.16 -0.02 -0.04 -0.68 0.1 -0.68 l5.52 0 c0.14 0 0.24 0.66 0.1 0.68 c-0.84 0.1 -1.64 0.4 -1.64 1.8 l0 8.88 c0 1.14 0.48 1.56 2.14 1.56 c3.02 0 4.22 -1.38 4.7 -2.14 c0.14 -0.22 0.68 -0.12 0.68 0.22 c0 1.02 -0.86 3.04 -2.12 3.04 c-1.12 -0.06 -2.22 -0.12 -3.9 -0.12 c-1.84 0 -4.02 -0.06 -5.84 0.12 z M190.06000000000003 19.32 c0.28 0.04 0.2 0.68 -0.04 0.68 l-5.28 0 c-0.26 0 -0.28 -0.64 -0.06 -0.68 c0.74 -0.14 1.54 -0.4 0.8 -2.12 l-0.22 -0.5 c-0.2 -0.48 -0.54 -0.52 -1.14 -0.52 l-4.08 0 c-0.6 0 -0.94 0.04 -1.14 0.52 l-0.2 0.5 c-0.7 1.72 0.06 1.98 1.02 2.12 c0.26 0.04 0.2 0.68 -0.06 0.68 l-4.32 0 c-0.24 0 -0.3 -0.64 -0.06 -0.68 c0.82 -0.14 1.3 -0.42 2.04 -2.12 l3.38 -7.76 c0.78 -1.76 1.02 -2.58 1.02 -3.34 c0 -0.12 1.4 -0.44 1.46 -0.3 l4.88 11.38 c0.72 1.7 1.2 2.02 2 2.14 z M183.98000000000002 15.059999999999999 c0.28 0 0.58 -0.04 0.46 -0.32 l-2.34 -5.6 l-2.36 5.6 c-0.12 0.28 0.18 0.32 0.46 0.32 l3.78 0 z M213.04000000000005 6 c0.26 0 0.32 0.64 0.06 0.68 c-0.8 0.12 -1.42 0.42 -2.08 2.12 l-3.02 7.84 c-0.64 1.66 -0.96 2.58 -0.96 3.36 c0 0.12 -1.4 0.44 -1.46 0.3 l-3.14 -8 l-1.88 4.34 c-0.72 1.66 -0.96 2.56 -0.96 3.36 c0 0.12 -1.42 0.44 -1.48 0.3 l-4.56 -11.48 c-0.68 -1.72 -1.28 -2.02 -2.06 -2.14 c-0.26 -0.04 -0.2 -0.68 0.06 -0.68 l5.2 0 c0.26 0 0.3 0.64 0.06 0.68 c-0.92 0.16 -1.4 0.58 -0.8 2.12 l3.16 8.16 l2.04 -4.72 c0.46 -1.06 0.52 -1.7 -0.02 -3.08 c-0.74 -1.9 -1.26 -2.34 -1.78 -2.48 c-0.22 -0.06 -0.2 -0.68 0.06 -0.68 l3.98 0 c0.2 0 0.26 0.06 0.26 0.16 c0 0.26 -0.88 0.88 -0.2 2.64 l3.08 8 l3.04 -8 c0.66 -1.72 0 -1.94 -0.96 -2.12 c-0.22 -0.04 -0.18 -0.68 0.06 -0.68 l4.3 0 z"></path></g></svg>
