<svg version="1.1" width="307" height="72" viewBox="0 0 307 72" xmlns="http://www.w3.org/2000/svg">
    <g id="g8" transform="matrix(0.408772, 0, 0, -0.268367, -74.164055, 200.820572)">
        <g id="g10">
            <g id="g12">
                <g id="g18" transform="translate(406.8143,534.799)">
                    <path d="m 0,0 c -10.516,3.949 -21.03,11.19 -31.543,21.721 l -19.961,19.994 c -11.502,11.517 -21.113,20.281 -28.833,26.287 0.979,0.29 1.933,0.604 2.874,0.932 0.257,0.089 0.505,0.187 0.759,0.279 3.365,1.262 8.574,3.57 13.488,7.198 0.166,0.126 0.336,0.249 0.5,0.377 0.054,0.041 0.108,0.082 0.161,0.123 2.246,1.762 4.298,3.714 6.156,5.856 0.255,0.294 0.495,0.593 0.739,0.891 2.754,3.426 4.562,6.766 5.688,9.283 0.01,0.025 0.022,0.05 0.033,0.074 0.038,0.086 0.073,0.167 0.109,0.25 0.55,1.313 1.017,2.66 1.416,4.036 h -22.732 c -0.51,-3.148 -1.282,-5.94 -2.214,-8.417 -0.056,-0.15 -0.115,-0.295 -0.173,-0.442 -0.115,-0.303 -0.235,-0.599 -0.357,-0.896 -1.437,-3.513 -3.326,-6.616 -5.674,-9.301 -3.495,-4.085 -6.85,-5.962 -7.71,-6.401 -0.067,-0.04 -0.135,-0.078 -0.202,-0.117 0,0 -8.843,-5.991 -24.843,-6.513 v -4.695 l 9.926,0.337 c 0.907,-0.578 1.868,-1.235 2.871,-1.956 5.992,-4.306 13.698,-11.164 23.128,-20.593 L -59.76,21.673 c 12.431,-12.488 22.864,-20.577 31.297,-24.274 9.035,-4.026 21.028,-6.038 35.979,-6.038 3.367,0 6.9,0.081 10.597,0.247 v 4.567 C 11.54,-3.333 5.502,-2.058 0,0" style="fill:#025c8f;fill-opacity:1;fill-rule:nonzero;stroke:none" id="path20"/>
                </g>
                <g id="g22" transform="translate(264.9982,525.5916)">
                    <path d="m 0,0 c -6.871,2.626 -10.303,9.747 -10.303,21.365 v 52.427 c 6.491,-0.405 11.764,-0.606 15.822,-0.606 2.021,0 5.008,0.058 8.943,0.176 v 0.015 5.775 0.072 c -1.794,-0.086 -3.634,-0.129 -5.522,-0.129 -9.295,0 -15.709,0.201 -19.243,0.606 v 101.672 c 3.636,0.402 8.788,0.606 15.455,0.606 15.252,0 27.373,-2.169 36.365,-6.506 16.263,-7.87 24.395,-22.747 24.395,-44.633 0,-4.353 -0.305,-8.428 -0.91,-12.231 h 0.092 27.953 c 1.298,4.469 1.958,9.2 1.958,14.203 0,16.644 -6.762,29.857 -20.285,39.642 -14.331,10.29 -35.272,15.434 -62.823,15.434 -12.917,0 -25.937,-0.303 -39.057,-0.909 -4.442,-0.203 -8.377,-0.405 -11.807,-0.606 -14.13,-0.81 -23.212,-1.212 -27.248,-1.212 v -5.909 h 6.818 c 9.091,0 15.252,-1.819 18.486,-5.455 3.232,-3.637 4.848,-10.103 4.848,-19.395 V 23.789 c 0,-9.799 -1.718,-16.542 -5.151,-20.228 -3.436,-3.689 -10.001,-5.531 -19.698,-5.531 h -5.303 V -7.879 H 21.516 V -1.97 H 14.395 C 8.232,-1.97 3.433,-1.314 0,0" style="fill:#ffffff;fill-opacity:1;fill-rule:nonzero;stroke:none" id="path24"/>
                </g>
                <g id="g26" transform="translate(414.2157,523.7444)">
                    <path d="m 0,0 c 0.358,-9.209 -5.695,-18.132 -14.406,-21.215 -3.691,-1.538 -9.585,-1.438 -13.57,-1.557 -43.591,-1.916 -133.352,-1.962 -177.818,-1.711 -11.659,0.104 -22.194,9.402 -23.652,20.989 -0.376,2.007 -0.244,5.059 -0.274,7.12 -0.002,43.541 0.001,133.348 0,177.748 -0.993,14.361 9.876,26.747 24.45,26.833 45.741,0.196 135.439,-0.135 181.948,0.003 C -9.386,209.06 2.792,198.216 2.98,184.129 3.05,183.176 2.971,180.093 3,179.047 3.504,127.112 1.74,63.107 0,11.36 -1.513,60.463 -3.572,123 -3,172.339 c -0.093,3.551 0.138,9.591 -0.09,13.13 -0.789,9.342 -9.18,16.92 -18.556,16.741 -40.12,0.002 -130.13,-0.002 -169.363,0 0,0 -13.415,0 -13.415,0 l -0.831,-0.003 c -1.32,-0.028 -2.338,-0.15 -3.588,-0.359 -8.114,-1.552 -14.602,-8.978 -14.828,-17.264 0.063,-46.276 -0.148,-135.455 -0.049,-180.958 0,0 0,-3.354 0,-3.354 0.001,-0.557 0.048,-0.983 0.065,-1.482 l 0.036,-0.721 c 0.175,-1.167 0.38,-2.393 0.719,-3.528 2.248,-7.431 9.457,-12.957 17.248,-13.026 0.727,-0.102 2.46,0.022 3.282,-0.025 35.612,0.123 126.58,0.237 160.979,-1.352 4.102,-0.032 16.06,-0.526 20.11,-0.567 C -10.053,-20.797 -0.202,-11.217 0,0" style="fill:#ffffff;fill-opacity:1;fill-rule:nonzero;stroke:none" id="path28"/>
                </g>
                <g id="g30" transform="translate(510.2344,557.0942)">
                    <path d="m 0,0 c 2.074,0 3.68,0.793 4.815,2.384 1.134,1.588 1.703,3.516 1.703,5.788 0,2.204 -0.632,4.086 -1.897,5.641 -1.265,1.557 -2.903,2.335 -4.913,2.335 H -9.145 V 0 Z m -26.461,30.838 h 26.169 c 8.172,0 14.315,-1.913 18.435,-5.739 4.118,-3.828 6.177,-9.47 6.177,-16.927 0,-7.459 -2.66,-13.717 -7.977,-18.776 l 7.101,-23.932 H 4.475 l -4.767,19.749 h -8.853 v -19.749 h -17.316 z" style="fill:#ffffff;fill-opacity:1;fill-rule:nonzero;stroke:none" id="path32"/>
                </g>
                <g id="g34" transform="translate(568.6992,573.729)">
                    <path d="M 0,0 H -4.28 L -8.755,-27.822 H 4.476 Z m 7.394,-42.803 h -19.068 l -1.264,-8.367 h -17.511 l 12.55,65.373 H 13.62 L 26.169,-51.17 H 8.658 Z" style="fill:#ffffff;fill-opacity:1;fill-rule:nonzero;stroke:none" id="path36"/>
                </g>
                <g id="g38" transform="translate(602.6514,524.0176)">
                    <path d="m 0,0 -3.503,0.779 1.751,13.231 c 8.562,-1.168 15.177,-1.752 19.846,-1.752 5.058,0 7.588,1.752 7.588,5.253 0,1.232 -0.569,2.204 -1.703,2.919 -1.135,0.713 -2.805,1.491 -5.009,2.335 -1.428,0.518 -2.466,0.939 -3.114,1.265 -7.329,2.464 -12.534,5.285 -15.613,8.463 -3.082,3.176 -4.621,7.166 -4.621,11.965 0,6.81 2.074,11.966 6.226,15.468 4.149,3.502 9.792,5.253 16.927,5.253 2.918,0 5.691,-0.194 8.318,-0.583 2.626,-0.389 7.441,-1.233 14.446,-2.529 L 40.177,48.642 c -8.432,0.973 -14.917,1.459 -19.456,1.459 -5.319,0 -7.978,-1.459 -7.978,-4.378 0,-0.973 0.648,-1.8 1.946,-2.48 1.296,-0.681 3.339,-1.541 6.128,-2.578 2.854,-1.039 4.703,-1.751 5.546,-2.141 4.281,-1.751 7.588,-3.453 9.923,-5.107 2.334,-1.654 4.02,-3.648 5.059,-5.983 C 42.381,25.099 42.9,22.148 42.9,18.582 42.9,14.041 41.846,10.166 39.739,6.957 37.631,3.746 34.777,1.314 31.179,-0.34 27.579,-1.994 23.542,-2.82 19.066,-2.82 13.488,-2.82 7.133,-1.879 0,0" style="fill:#ffffff;fill-opacity:1;fill-rule:nonzero;stroke:none" id="path40"/>
                </g>
                <g id="g42" transform="translate(726.4902,587.9321)">
                    <path d="m 0,0 v -65.374 h -17.315 v 45.724 h -1.071 l -9.047,-42.513 h -16.733 l -9.144,42.513 h -0.973 V -65.374 H -71.599 V 0 h 29.087 L -35.799,-38.912 -29.087,0 Z" style="fill:#ffffff;fill-opacity:1;fill-rule:nonzero;stroke:none" id="path44"/>
                </g>
                <path d="m 739.526,587.932 h 17.315 v -65.374 h -17.315 z" style="fill:#ffffff;fill-opacity:1;fill-rule:nonzero;stroke:none" id="path46"/>
                <g id="g48" transform="translate(795.0723,573.729)">
                    <path d="M 0,0 H -4.28 L -8.755,-27.822 H 4.476 Z m 7.394,-42.803 h -19.068 l -1.264,-8.367 h -17.511 l 12.55,65.373 H 13.62 L 26.169,-51.17 H 8.658 Z" style="fill:#ffffff;fill-opacity:1;fill-rule:nonzero;stroke:none" id="path50"/>
                </g>
                <g id="g52" transform="translate(836.3203,572.6597)">
                    <path d="M 0,0 H -15.663 V 15.272 H 32.979 V 0 H 17.511 V -50.101 H 0 Z" style="fill:#ffffff;fill-opacity:1;fill-rule:nonzero;stroke:none" id="path54"/>
                </g>
                <path d="m 525.219,706.242 h 13.066 v -14.787 h -13.066 z m -18.357,0 h 13.066 v -14.787 h -13.066 z m 57.339,-14.787 v -48.641 h -50.969 c -6.119,0 -11.41,0.356 -15.873,1.071 -4.464,0.713 -8.406,2.578 -11.824,5.594 -3.42,3.015 -5.129,7.7 -5.129,14.056 0,2.854 0.341,5.918 1.026,9.194 0.683,3.274 1.457,6.112 2.321,8.512 l 15.118,-0.778 c 0.071,0.713 -0.181,-1.265 -0.756,-5.935 -0.505,-3.827 -0.756,-6.194 -0.756,-7.101 0,-2.271 0.918,-4.395 2.754,-6.372 1.835,-1.979 5.272,-2.967 10.312,-2.967 h 35.202 v 33.367 z" style="fill:#ffffff;fill-opacity:1;fill-rule:nonzero;stroke:none" id="path56"/>
                <g id="g58" transform="translate(608.3652,658.0879)">
                    <path d="m 0,0 v -15.273 h -29.48 v 66.929 h 18.574 V 0 Z" style="fill:#ffffff;fill-opacity:1;fill-rule:nonzero;stroke:none" id="path60"/>
                </g>
                <path d="m 636.223,635.032 h 13.066 v -14.787 h -13.066 z m -18.357,0 h 13.065 v -14.787 h -13.065 z m 41.466,23.056 v -15.274 h -50.969 v 15.274 h 16.09 v 33.367 h 18.573 v -33.367 z" style="fill:#ffffff;fill-opacity:1;fill-rule:nonzero;stroke:none" id="path62"/>
                <g id="g64" transform="translate(692.3184,662.3682)">
                    <path d="m 0,0 c 0.324,-1.687 0.665,-3.113 1.026,-4.28 h 18.681 v 9.436 c 0,2.27 -0.162,4.021 -0.485,5.253 -0.325,1.232 -1.315,2.286 -2.97,3.161 -1.656,0.876 -4.283,1.314 -7.883,1.314 -2.736,0 -5.328,-0.26 -7.775,-0.779 C -0.126,10.538 -0.485,7.49 -0.485,4.961 -0.485,3.34 -0.323,1.686 0,0 m 49.834,-4.28 v -15.274 h -7.559 c -0.863,0 -1.656,0.243 -2.375,0.73 -0.72,0.486 -1.26,1.15 -1.62,1.994 v -2.724 H -32.988 V -4.28 h 16.09 c -0.938,3.631 -1.405,6.712 -1.405,9.241 0,3.048 0.487,6.582 1.458,10.604 0.972,4.021 2.033,7.588 3.186,10.701 2.014,0.908 5.11,1.734 9.286,2.481 4.174,0.744 8.926,1.118 14.254,1.118 8.566,0 14.902,-1.07 19.005,-3.21 4.103,-2.14 6.695,-4.897 7.774,-8.268 1.08,-3.373 1.62,-7.914 1.62,-13.62 V -0.39 c 0.433,-1.167 1.027,-2.107 1.783,-2.82 0.755,-0.715 1.492,-1.07 2.212,-1.07 z" style="fill:#ffffff;fill-opacity:1;fill-rule:nonzero;stroke:none" id="path66"/>
                </g>
                <g id="g68" transform="translate(831.4551,669.8584)">
                    <path d="m 0,0 v -27.044 h -23.648 c -2.592,0 -5.094,0.389 -7.505,1.167 -2.413,0.778 -4.087,1.46 -5.022,2.043 -3.169,-2.14 -6.84,-3.21 -11.014,-3.21 h -42.114 v 15.273 h 15.874 v 28.504 h 18.574 v -28.504 h 1.187 c 2.375,0 4.282,0.779 5.723,2.335 1.439,1.556 2.16,3.664 2.16,6.324 v 19.845 h 18.573 V -3.112 c 0,-2.595 -0.288,-5.19 -0.864,-7.784 1.008,-0.583 2.195,-0.875 3.563,-0.875 h 5.94 v 8.172 l 0.108,5.253 c 0.07,0.973 0.108,2.464 0.108,4.475 0,3.437 -0.289,8.431 -0.864,14.981 l 16.522,0.682 C -0.901,9.663 0,2.399 0,0" style="fill:#ffffff;fill-opacity:1;fill-rule:nonzero;stroke:none" id="path70"/>
                </g>
                <g id="g72" transform="translate(841.6045,619.0781)">
                    <path d="M 0,0 V 15.078 L 1.62,14.98 c 3.887,0 5.83,2.661 5.83,7.978 V 72.475 H 26.024 V 25.39 C 26.024,17.479 24.513,11.221 21.489,6.614 18.465,2.011 13.893,-0.292 7.774,-0.292 6.19,-0.292 3.599,-0.195 0,0" style="fill:#ffffff;fill-opacity:1;fill-rule:nonzero;stroke:none" id="path74"/>
                </g>
            </g>
        </g>
    </g>
</svg>
