<svg xmlns="http://www.w3.org/2000/svg" width="307" height="72" viewBox="0 0 307 72" class="css-1j8o68f">
    <defs id="SvgjsDefs2806"></defs>
    <g>
        <title>Layer 1</title>
        <g fill="#c08329" featurekey="symbolContainer" id="SvgjsG10999">
            <rect id="svg_1" rx="10" height="72" width="66"/>
        </g>
        <g fill="#ffffff" transform="matrix(1.16497, 0, 0, 1.16497, 6.2185, -11.1762)" featurekey="monogramFeature-0" id="SvgjsG11000">
            <path id="svg_2" d="m46.5,58.5c0.48,0 0.36,1.62 0,1.74c-3.78,1.26 -9,1.08 -12.6,-3.54l-9.24,-11.88c-2.58,-3.36 -5.64,-3.84 -9.84,-3.9l0,11.64c0,4.2 2.88,4.92 6.72,5.4c0.42,0.06 0.12,2.04 -0.36,2.04l-18.18,0c-0.48,0 -0.84,-1.98 -0.36,-2.04c3.06,-0.42 4.98,-1.62 4.98,-5.4l0,-26.76c0,-3.96 -2.1,-5.1 -4.98,-5.88c-0.48,-0.12 -0.18,-2.1 0.36,-2.04c2.34,0.3 4.98,0.36 6.9,0.36c4.44,0 8.58,-0.36 11.46,-0.36c9.06,0 15.12,3.72 15.12,11.1c0,6.96 -5.64,10.38 -10.68,10.68l0,0.3c2.4,0 4.14,1.02 6.78,4.32l8.94,11.22c1.86,2.34 3.66,3 4.98,3zm-29.94,-20.34c8.94,0 12.36,-1.56 12.36,-7.56c0,-6.42 -4.08,-9.6 -9.42,-9.6c-3.54,0 -4.68,1.44 -4.68,4.8l0,12.36l1.74,0z"/>
        </g>
    </g>
    <g id="SvgjsG2808" featurekey="textGroupContainer" transform="matrix(1,0,0,1,306,5)" fill="#025a8e">
        <rect xmlns="http://www.w3.org/2000/svg" y="0" height="1" width="1" opacity="0"></rect>
        <rect xmlns="http://www.w3.org/2000/svg" y="0" x="-235" width="5" height="63"></rect></g>
    <g id="SvgjsG2809" featurekey="nameFeature-0" transform="matrix(2.4274039268493652,0,0,2.4274039268493652,87.1272957387459,-4.624495201380526)" fill="#025a8e">
        <path d="M0.78125 20 l-0.0097656 -15.762 l5.1172 0 c1.5137 0 3.0078 0.52734 4.0918 1.6113 s1.5234 2.0996 1.5234 3.6133 l0 0.48828 c0 1.1719 -0.33203 2.0313 -0.99609 2.9688 s-1.2207 1.2109 -2.2559 1.6016 l3.5547 5.4785 l-3.8477 0 l-4.0234 -6.1523 l0 6.1523 l-3.1543 0 z M3.9258 11.8164 l2.2559 0.0097656 c0.6543 0 0.98633 -0.16602 1.4453 -0.625 s0.625 -0.98633 0.625 -1.6406 c0 -0.64453 -0.16602 -1.0742 -0.625 -1.543 s-1.2793 -0.63477 -1.9336 -0.63477 l-1.7676 0 l0 4.4336 z M18.623034375 14.7949 l2.7832 0 l-1.3867 -3.2715 z M17.334034375 17.5781 l-0.019531 -0.0097656 c-0.35156 0.80078 -0.71289 1.5918 -1.0742 2.3926 l-3.3887 0 l7.1387 -15.996 l7.1582 15.996 l-3.3984 0 c-0.35156 -0.79102 -0.70313 -1.5918 -1.0547 -2.3828 l-5.3613 0 z M32.226578125 16.8945 l-0.0097656 -0.019531 c0.86914 0 1.5918 -0.72266 1.5918 -1.5918 c0 -0.67383 -0.26367 -1.1035 -0.80078 -1.2988 c-1.1328 -0.41992 -0.85938 -0.32227 -1.9629 -0.70313 c-1.1621 -0.40039 -2.2363 -1.1914 -2.959 -2.1777 c-0.42969 -0.58594 -0.64453 -1.3086 -0.64453 -2.1777 c0 -1.3086 0.46875 -2.4316 1.4063 -3.3691 s2.0605 -1.4063 3.3789 -1.4063 c1.3086 0 2.4316 0.46875 3.3691 1.4063 s1.4063 2.0605 1.4063 3.3691 l-3.1738 0 c0 -0.85938 -0.72266 -1.582 -1.582 -1.582 c-0.86914 0 -1.5918 0.72266 -1.5918 1.5918 c0 0.56641 0.22461 0.99609 0.68359 1.2891 c0.9375 0.60547 0.83008 0.48828 1.9531 0.82031 c1.2109 0.35156 2.3047 1.1035 3.0566 2.0703 c0.43945 0.56641 0.66406 1.2988 0.66406 2.1875 c0 1.3184 -0.46875 2.4414 -1.4063 3.3789 s-2.0605 1.4063 -3.3691 1.4063 c-1.3184 0 -2.4414 -0.46875 -3.3789 -1.4063 s-1.4063 -2.0605 -1.4063 -3.3789 l3.1836 0 c0 0.87891 0.71289 1.5918 1.5918 1.5918 z M38.45703125 3.965 l7.6758 10.527 l7.6758 -10.527 l0 16.035 l-3.1543 0 l0 -6.4941 l-4.5215 6.2402 l-4.5215 -6.2402 l0 6.4941 l-3.1543 0 l0 -16.035 z M55.37109375 20 l0 -15.742 l3.1543 0 l0 15.742 l-3.1543 0 z M65.439440625 14.7949 l2.7832 0 l-1.3867 -3.2715 z M64.150440625 17.5781 l-0.019531 -0.0097656 c-0.35156 0.80078 -0.71289 1.5918 -1.0742 2.3926 l-3.3887 0 l7.1387 -15.996 l7.1582 15.996 l-3.3984 0 c-0.35156 -0.79102 -0.70313 -1.5918 -1.0547 -2.3828 l-5.3613 0 z M76.074234375 4.257999999999999 l3.1543 0 l3.9355 0 l0 3.1445 l-3.9355 0 l0 12.598 l-3.1543 0 l0 -12.598 l-3.9355 0 l0 -3.1445 l3.9355 0 z"></path></g>
    <g id="SvgjsG2810" featurekey="sloganFeature-0" transform="matrix(0.8821881413459778,0,0,0.8821881413459778,88.65539083066992,50.50218267905124)" fill="#c08329">
        <path d="M0.39063 4.257999999999999 l3.5742 0 l2.7148 4.9902 l2.7148 -4.9902 l3.584 0 l-4.7266 8.6816 l0 7.0605 l-3.1445 0 l0 -7.0605 z M19.755815625 4.18 c2.1875 0 4.0625 0.78125 5.625 2.3438 s2.3438 3.4375 2.3438 5.625 s-0.78125 4.0625 -2.3438 5.6152 s-3.4375 2.334 -5.625 2.334 s-4.0625 -0.78125 -5.6152 -2.334 s-2.334 -3.4277 -2.334 -5.6152 s0.78125 -4.0625 2.334 -5.625 s3.4277 -2.3438 5.6152 -2.3438 z M19.755815625 7.353999999999999 c-1.3184 0 -2.4414 0.46875 -3.3691 1.4063 s-1.3965 2.0605 -1.3965 3.3691 c0 1.3184 0.46875 2.4414 1.3965 3.3691 s2.0508 1.3965 3.3691 1.3965 c1.3086 0 2.4316 -0.46875 3.3691 -1.3965 s1.4063 -2.0508 1.4063 -3.3691 c0 -1.3086 -0.46875 -2.4316 -1.4063 -3.3691 s-2.0605 -1.4063 -3.3691 -1.4063 z M38.359703124999996 4.257999999999999 l3.1738 0 l0 6.3281 l0 3.1641 c0 1.748 -0.61523 3.2422 -1.8555 4.4824 s-2.7344 1.8555 -4.4727 1.8555 c-1.748 0 -3.2422 -0.61523 -4.4824 -1.8555 s-1.8555 -2.7344 -1.8555 -4.4824 l0 -3.1641 l0 -6.3281 l3.1738 0 l0 6.3281 l0 2.832 l0 0.32227 c0 0.86914 0.3125 1.6113 0.92773 2.2266 s1.3574 0.92773 2.2266 0.92773 c0.85938 0 1.6016 -0.3125 2.2266 -0.92773 s0.9375 -1.3574 0.9375 -2.2266 l0 -0.32227 l0 -2.832 l0 -6.3281 z M43.0859375 20 l-0.0097656 -15.762 l5.1172 0 c1.5137 0 3.0078 0.52734 4.0918 1.6113 s1.5234 2.0996 1.5234 3.6133 l0 0.48828 c0 1.1719 -0.33203 2.0313 -0.99609 2.9688 s-1.2207 1.2109 -2.2559 1.6016 l3.5547 5.4785 l-3.8477 0 l-4.0234 -6.1523 l0 6.1523 l-3.1543 0 z M46.2304875 11.8164 l2.2559 0.0097656 c0.6543 0 0.98633 -0.16602 1.4453 -0.625 s0.625 -0.98633 0.625 -1.6406 c0 -0.64453 -0.16602 -1.0742 -0.625 -1.543 s-1.2793 -0.63477 -1.9336 -0.63477 l-1.7676 0 l0 4.4336 z M61.044926875 4.257999999999999 l3.3887 0 l2.9004 7.4219 l2.9004 -7.4219 l2.9004 7.4219 l2.8906 -7.4219 l3.3984 0 l-6.2891 16.035 l-2.9297 -7.8027 l-2.8711 7.8027 z M81.6406125 14.7949 l2.7832 0 l-1.3867 -3.2715 z M80.3516125 17.5781 l-0.019531 -0.0097656 c-0.35156 0.80078 -0.71289 1.5918 -1.0742 2.3926 l-3.3887 0 l7.1387 -15.996 l7.1582 15.996 l-3.3984 0 c-0.35156 -0.79102 -0.70313 -1.5918 -1.0547 -2.3828 l-5.3613 0 z M88.04688 4.257999999999999 l3.5742 0 l2.7148 4.9902 l2.7148 -4.9902 l3.584 0 l-4.7266 8.6816 l0 7.0605 l-3.1445 0 l0 -7.0605 z M111.406265625 4.257999999999999 l3.1543 0 l3.9355 0 l0 3.1445 l-3.9355 0 l0 12.598 l-3.1543 0 l0 -12.598 l-3.9355 0 l0 -3.1445 l3.9355 0 z M127.42183125 4.18 c2.1875 0 4.0625 0.78125 5.625 2.3438 s2.3438 3.4375 2.3438 5.625 s-0.78125 4.0625 -2.3438 5.6152 s-3.4375 2.334 -5.625 2.334 s-4.0625 -0.78125 -5.6152 -2.334 s-2.334 -3.4277 -2.334 -5.6152 s0.78125 -4.0625 2.334 -5.625 s3.4277 -2.3438 5.6152 -2.3438 z M127.42183125 7.353999999999999 c-1.3184 0 -2.4414 0.46875 -3.3691 1.4063 s-1.3965 2.0605 -1.3965 3.3691 c0 1.3184 0.46875 2.4414 1.3965 3.3691 s2.0508 1.3965 3.3691 1.3965 c1.3086 0 2.4316 -0.46875 3.3691 -1.3965 s1.4063 -2.0508 1.4063 -3.3691 c0 -1.3086 -0.46875 -2.4316 -1.4063 -3.3691 s-2.0605 -1.4063 -3.3691 -1.4063 z M142.40234375 4.257999999999999 l3.1543 0 l0 12.588 l6.2891 0 l0 3.1543 l-9.4434 0 l0 -15.742 z M158.369128125 14.7949 l2.7832 0 l-1.3867 -3.2715 z M157.080128125 17.5781 l-0.019531 -0.0097656 c-0.35156 0.80078 -0.71289 1.5918 -1.0742 2.3926 l-3.3887 0 l7.1387 -15.996 l7.1582 15.996 l-3.3984 0 c-0.35156 -0.79102 -0.70313 -1.5918 -1.0547 -2.3828 l-5.3613 0 z M163.37891125 4.257999999999999 l3.3887 0 l2.9004 7.4219 l2.9004 -7.4219 l2.9004 7.4219 l2.8906 -7.4219 l3.3984 0 l-6.2891 16.035 l-2.9297 -7.8027 l-2.8711 7.8027 z"></path></g></svg>
