<svg width="64" height="63" viewBox="0 0 64 63" fill="none" xmlns="http://www.w3.org/2000/svg">
<rect x="0.459869" y="0.239014" width="62.7141" height="62.7141" rx="15" fill="#FFF2F8"/>
<path d="M46.459 28.6402H43.163V25.3441C43.163 24.5171 42.4918 23.8459 41.6648 23.8459C40.8377 23.8459 40.1666 24.5171 40.1666 25.3441V28.6402H33.5744V25.3441C33.5744 24.5171 32.9032 23.8459 32.0762 23.8459C31.2492 23.8459 30.578 24.5171 30.578 25.3441V28.6402H23.9859V25.3441C23.9859 24.5171 23.3147 23.8459 22.4877 23.8459C21.6607 23.8459 20.9895 24.5171 20.9895 25.3441V28.6402H17.6935C15.5432 28.6426 13.8005 30.3853 13.7981 32.5355V45.7197C13.8005 47.87 15.5432 49.6127 17.6935 49.6151H46.459C48.6092 49.6139 50.3532 47.87 50.3544 45.7197V32.5355C50.352 30.3853 48.6092 28.6426 46.459 28.6402ZM17.6935 31.6366H20.9895V33.7341C20.9895 34.5611 21.6607 35.2323 22.4877 35.2323C23.3147 35.2323 23.9859 34.5611 23.9859 33.7341V31.6366H30.578V33.7341C30.578 34.5611 31.2492 35.2323 32.0762 35.2323C32.9032 35.2323 33.5744 34.5611 33.5744 33.7341V31.6366H40.1666V33.7341C40.1666 34.5611 40.8377 35.2323 41.6648 35.2323C42.4918 35.2323 43.163 34.5611 43.163 33.7341V31.6366H46.459C46.9528 31.6438 47.3507 32.0417 47.3579 32.5343V39.7005L45.1226 37.4652C44.8457 37.1955 44.467 37.0289 44.0487 37.0289C44.0008 37.0289 43.9528 37.0313 43.9061 37.0349H43.9121C43.4506 37.0817 43.0563 37.3322 42.8154 37.6941L42.8118 37.7001C41.5101 39.667 39.5157 42.015 37.5824 41.8208C35.5665 41.6614 33.9112 38.9442 33.4426 37.9111C33.2005 37.3873 32.6803 37.0313 32.0762 37.0313C31.4722 37.0313 30.952 37.3885 30.7147 37.9027L30.7111 37.9123C30.2484 38.9311 28.6088 41.6087 26.5988 41.7753C24.6619 41.9814 22.6483 39.6478 21.3335 37.6929C21.0878 37.3298 20.6947 37.0829 20.2416 37.0385H20.2356C20.1937 37.0349 20.1445 37.0325 20.0954 37.0325C19.6807 37.0325 19.3043 37.1991 19.0311 37.47L16.7945 39.7065V32.5391C16.8017 32.0453 17.1997 31.6474 17.6935 31.6402V31.6366ZM46.459 46.6187H17.6935C17.1997 46.6115 16.8017 46.2135 16.7945 45.7209V43.9423L19.9132 40.8236C21.3886 43.1632 23.938 44.7069 26.8517 44.7609H26.8601C29.0499 44.4073 30.8981 43.1692 32.0559 41.4325L32.0738 41.4049C33.2532 43.1956 35.1182 44.4517 37.2864 44.8028L37.3307 44.8088C37.483 44.8208 37.6328 44.828 37.7826 44.828C40.5165 44.5583 42.8477 43.0457 44.2297 40.8691L44.2501 40.8344L47.3591 43.9459V45.7233C47.3519 46.2171 46.954 46.6151 46.4614 46.6222H46.4602L46.459 46.6187ZM22.4769 23.2466C24.8405 23.2083 26.7678 21.3853 26.9704 19.0684L26.9716 19.0517C26.3914 16.8499 25.2061 14.9777 23.6036 13.567L23.5916 13.5562C23.3171 13.2506 22.9192 13.0588 22.4781 13.0588H22.4757C22.0335 13.06 21.6355 13.253 21.3611 13.5586L21.3599 13.5598C19.8017 15.0161 18.6355 16.8727 18.0255 18.9666L18.0039 19.0517C18.2017 21.3805 20.1206 23.2023 22.4733 23.2466H22.4769ZM22.4817 16.8859C23.0391 17.5343 23.5341 18.2654 23.9392 19.0493L23.9691 19.1128C23.739 19.7432 23.1673 20.1963 22.4841 20.2502H22.4781C21.8081 20.1891 21.2496 19.766 20.9955 19.1811L20.9907 19.1691C21.409 18.2966 21.9076 17.5463 22.4937 16.8739L22.4817 16.8859ZM32.0655 23.2466C34.429 23.2083 36.3551 21.3853 36.5577 19.0684L36.5589 19.0517C35.9788 16.8499 34.7934 14.9777 33.1921 13.567L33.1801 13.5562C32.9056 13.2506 32.5089 13.0588 32.0667 13.0588H32.0631C31.6208 13.06 31.2229 13.253 30.9484 13.5586L30.9472 13.5598C29.3891 15.0161 28.2229 16.8727 27.6128 18.9666L27.5912 19.0517C27.789 21.3805 29.7079 23.2023 32.0607 23.2466H32.0655ZM32.069 16.8871C32.6276 17.5355 33.1226 18.2654 33.5265 19.0493L33.5553 19.1116C33.3251 19.742 32.7546 20.1951 32.0714 20.249H32.0655C31.3955 20.1879 30.8369 19.7648 30.5828 19.1799L30.578 19.1679C30.9963 18.2966 31.4937 17.5451 32.0798 16.8739L32.069 16.8871ZM41.6528 23.2466C44.0163 23.2083 45.9424 21.3853 46.1462 19.0684L46.1474 19.0517C45.5673 16.8499 44.3819 14.9777 42.7794 13.567L42.7674 13.5562C42.493 13.2506 42.0962 13.0588 41.6552 13.0588C41.654 13.0588 41.654 13.0588 41.6528 13.0588H41.6504C41.2069 13.06 40.809 13.253 40.5345 13.5586L40.5333 13.5598C38.9764 15.0161 37.8114 16.8739 37.2025 18.9666L37.1809 19.0517C37.3775 21.3805 39.2952 23.2023 41.648 23.2466H41.6528ZM41.6576 16.8871C42.2161 17.5355 42.7099 18.2654 43.115 19.0493L43.145 19.1116C42.9149 19.742 42.3431 20.1951 41.66 20.249H41.654C40.9852 20.1879 40.4278 19.7648 40.1737 19.1799L40.1689 19.1679C40.5837 18.2954 41.0811 17.5451 41.6672 16.8739L41.6576 16.8871Z" fill="#FF007A"/>
</svg>
