<svg width="63" height="64" viewBox="0 0 63 64" fill="none" xmlns="http://www.w3.org/2000/svg">
<rect x="0.0626221" y="0.588867" width="62.7141" height="62.7141" rx="15" fill="#DFEEFF"/>
<g clip-path="url(#clip0_76_1413)">
<path d="M26.9994 15.4253H36.1564C37.3686 15.4253 38.5312 15.9069 39.3883 16.764C40.2454 17.6211 40.727 18.7837 40.727 19.9958V35.2576H22.4129V19.9958C22.4129 19.3943 22.5316 18.7987 22.7623 18.2431C22.993 17.6875 23.3311 17.183 23.7572 16.7583C24.1833 16.3337 24.6891 15.9974 25.2454 15.7686C25.8018 15.5399 26.3979 15.4232 26.9994 15.4253Z" stroke="#007AB9" stroke-width="3" stroke-miterlimit="10"/>
<path d="M14.79 29.1528H22.4129V34.4904C22.4129 35.5034 22.0105 36.4749 21.2942 37.1912C20.5779 37.9075 19.6065 38.3099 18.5935 38.3099C17.5833 38.3056 16.6159 37.9014 15.9031 37.1855C15.1902 36.4697 14.79 35.5007 14.79 34.4904V29.1528Z" stroke="#007AB9" stroke-width="3" stroke-miterlimit="10"/>
<path d="M40.727 29.1528H48.3499V34.4904C48.3499 35.5034 47.9475 36.4749 47.2312 37.1912C46.5149 37.9075 45.5434 38.3099 44.5304 38.3099C43.5175 38.3099 42.546 37.9075 41.8297 37.1912C41.1134 36.4749 40.711 35.5034 40.711 34.4904V29.1528H40.727Z" stroke="#007AB9" stroke-width="3" stroke-miterlimit="10"/>
<path d="M19.7441 38.1179C19.5027 38.5876 19.3767 39.108 19.3766 39.6361C19.3766 40.4838 19.7133 41.2967 20.3127 41.8961C20.9121 42.4955 21.7251 42.8323 22.5727 42.8323H40.5352C41.3829 42.8323 42.1959 42.4955 42.7953 41.8961C43.3947 41.2967 43.7314 40.4838 43.7314 39.6361C43.7312 39.108 43.6052 38.5876 43.3638 38.1179" stroke="#007AB9" stroke-width="3" stroke-miterlimit="10"/>
<path d="M40.8229 35.3694L40.727 35.2576H22.4129L22.317 35.3694" stroke="#007AB9" stroke-width="3" stroke-miterlimit="10"/>
<path d="M23.9471 48.9851V42.8804" stroke="#007AB9" stroke-width="3" stroke-miterlimit="10"/>
<path d="M39.1928 48.9851V42.8804" stroke="#007AB9" stroke-width="3" stroke-miterlimit="10"/>
<path d="M20.8947 48.9851H26.9994" stroke="#007AB9" stroke-width="3" stroke-miterlimit="10"/>
<path d="M36.1405 48.9851H42.2452" stroke="#007AB9" stroke-width="3" stroke-miterlimit="10"/>
</g>
<defs>
<clipPath id="clip0_76_1413">
<rect width="38.3541" height="38.3541" fill="white" transform="translate(12.3929 13.0281)"/>
</clipPath>
</defs>
</svg>
