<svg width="64" height="63" viewBox="0 0 64 63" fill="none" xmlns="http://www.w3.org/2000/svg">
<rect x="0.714142" y="0.0246582" width="62.7141" height="62.7141" rx="15" fill="#F1F7FF"/>
<path d="M26.3469 48.4712C32.5467 48.4712 37.5727 43.4452 37.5727 37.2454C37.5727 31.0455 32.5467 26.0195 26.3469 26.0195C20.147 26.0195 15.1211 31.0455 15.1211 37.2454C15.1211 43.4452 20.147 48.4712 26.3469 48.4712Z" stroke="#2639ED" stroke-width="3" stroke-miterlimit="10"/>
<path d="M38.3253 42.4821C43.6939 42.4821 48.046 38.13 48.046 32.7615C48.046 27.3929 43.6939 23.0408 38.3253 23.0408C32.9567 23.0408 28.6046 27.3929 28.6046 32.7615C28.6046 38.13 32.9567 42.4821 38.3253 42.4821Z" stroke="#2639ED" stroke-width="3" stroke-miterlimit="10"/>
<path d="M39.0622 23.025H37.5727L33.0887 18.541L34.5781 15.5464H42.0568L43.5619 18.541L39.0622 23.025Z" stroke="#2639ED" stroke-width="3" stroke-miterlimit="10"/>
</svg>
