<svg width="63" height="64" viewBox="0 0 63 64" fill="none" xmlns="http://www.w3.org/2000/svg">
<rect x="0.0432129" y="0.650391" width="62.7141" height="62.7141" rx="15" fill="#FFF7E3"/>
<g clip-path="url(#clip0_76_1435)">
<path d="M22.0242 16.1544H22.8716V25.5366C22.8716 26.0967 23.3257 26.5508 23.8859 26.5508H39.433C39.9931 26.5508 40.4472 26.0967 40.4472 25.5366V16.1544H41.2946C41.8547 16.1544 42.3088 15.7004 42.3088 15.1402C42.3088 14.58 41.8547 14.126 41.2946 14.126H22.0242C21.4641 14.126 21.01 14.58 21.01 15.1402C21.01 15.7004 21.4641 16.1544 22.0242 16.1544ZM24.9001 24.5223V16.1544H38.4187V24.5223H24.9001Z" fill="#FF9900"/>
<path d="M46.9488 33.0424V32.1919C46.9488 29.6353 44.8688 27.5552 42.3122 27.5552H41.7096C39.1529 27.5552 37.073 29.6352 37.073 32.1919V35.6777C36.9496 35.3471 36.7893 35.0345 36.5975 34.7443V32.1919C36.5975 29.6353 34.5175 27.5552 31.9608 27.5552H31.3583C28.8016 27.5552 26.7216 29.6352 26.7216 32.1919V34.7443C26.5299 35.0345 26.3695 35.3471 26.2462 35.6777V32.1919C26.2462 29.6353 24.1662 27.5552 21.6095 27.5552H21.007C18.4503 27.5552 16.3703 29.6352 16.3703 32.1919V33.0424C14.7308 33.7578 13.5816 35.3937 13.5816 37.2938V45.8683C13.5816 46.4285 14.0357 46.8825 14.5958 46.8825H18.2716V50.4517H17.3843C16.8241 50.4517 16.37 50.9058 16.37 51.4659C16.37 52.0261 16.8241 52.4802 17.3843 52.4802H21.1874C21.7476 52.4802 22.2016 52.0261 22.2016 51.4659C22.2016 50.9058 21.7476 50.4517 21.1874 50.4517H20.3001V46.8825H23.9761C24.5363 46.8825 24.9904 46.4285 24.9904 45.8683V39.7874H25.2317C25.515 39.7874 25.7709 39.6709 25.9549 39.4837V45.8683C25.9549 46.4285 26.409 46.8825 26.9691 46.8825H30.6452V50.4517H29.7578C29.1977 50.4517 28.7436 50.9058 28.7436 51.4659C28.7436 52.0261 29.1977 52.4802 29.7578 52.4802H33.561C34.1212 52.4802 34.5752 52.0261 34.5752 51.4659C34.5752 50.9058 34.1212 50.4517 33.561 50.4517H32.6736V46.8825H36.3497C36.9099 46.8825 37.364 46.4285 37.364 45.8683V39.4837C37.5479 39.6709 37.8038 39.7874 38.0871 39.7874H38.3285V45.8683C38.3285 46.4285 38.7826 46.8825 39.3427 46.8825H43.0188V50.4517H42.1314C41.5713 50.4517 41.1172 50.9058 41.1172 51.4659C41.1172 52.0261 41.5713 52.4802 42.1314 52.4802H45.9346C46.4947 52.4802 46.9488 52.0261 46.9488 51.4659C46.9488 50.9058 46.4947 50.4517 45.9346 50.4517H45.0472V46.8825H48.7233C49.2835 46.8825 49.7375 46.4285 49.7375 45.8683V37.2938C49.7375 35.3937 48.5883 33.7578 46.9488 33.0424ZM15.6098 44.8541V37.2938C15.6098 35.8556 16.7798 34.6855 18.2179 34.6855H20.3536C21.7918 34.6855 22.9618 35.8556 22.9618 37.2938V44.8541H15.6098ZM20.3536 32.6571H18.3985V32.1919C18.3985 30.7537 19.5685 29.5836 21.0067 29.5836H21.6092C23.0474 29.5836 24.2174 30.7537 24.2174 32.1919V34.7345C23.3863 33.4836 21.9649 32.6571 20.3536 32.6571ZM31.3581 29.5836H31.9606C33.3988 29.5836 34.5688 30.7537 34.5688 32.1919V33.0395C34.0039 32.794 33.3814 32.6571 32.7271 32.6571H30.5914C29.9373 32.6571 29.3146 32.794 28.7497 33.0395V32.1919C28.7499 30.7537 29.9199 29.5836 31.3581 29.5836ZM27.9833 37.2938C27.9833 35.8556 29.1534 34.6855 30.5915 34.6855H32.7272C34.1654 34.6855 35.3354 35.8556 35.3354 37.2938V44.8541H27.9833V37.2938ZM47.7091 44.8541H40.357V37.2938C40.357 35.8556 41.5271 34.6855 42.9652 34.6855H45.1009C46.5391 34.6855 47.7091 35.8556 47.7091 37.2938V44.8541ZM41.7095 29.5836H42.3121C43.7502 29.5836 44.9203 30.7537 44.9203 32.1919V32.6571H42.9651C41.3539 32.6571 39.9326 33.4836 39.1012 34.7345V32.1919C39.1013 30.7537 40.2713 29.5836 41.7095 29.5836Z" fill="#FF9900"/>
</g>
<defs>
<clipPath id="clip0_76_1435">
<rect width="38.3541" height="38.3541" fill="white" transform="translate(12.4824 14.126)"/>
</clipPath>
</defs>
</svg>
