<svg width="64" height="63" viewBox="0 0 64 63" fill="none" xmlns="http://www.w3.org/2000/svg">
<rect x="0.332581" y="0.137451" width="62.7141" height="62.7141" rx="15" fill="#DAE9FF"/>
<g clip-path="url(#clip0_76_1478)">
<path d="M46.6575 23.2521C46.3583 23.0618 45.9829 23.0376 45.662 23.1878L41.9851 24.9086C42.5686 23.902 42.9044 22.7349 42.9044 21.4901C42.9044 17.7184 39.836 14.6499 36.0645 14.6499C33.619 14.6499 31.4703 15.9408 30.2608 17.8761C29.0513 15.9408 26.9026 14.6499 24.4571 14.6499C20.6855 14.6499 17.6169 17.7184 17.6169 21.4901C17.6169 23.6209 18.5968 25.5269 20.1291 26.7824C20.0095 26.9515 19.9385 27.1574 19.9385 27.3801V36.5807C19.9385 37.1531 20.4024 37.6172 20.975 37.6172H23.2309L24.5826 40.6278C24.7498 41.0001 25.12 41.2397 25.5281 41.2397H27.4745L19.8624 48.5039C19.4482 48.899 19.433 49.5551 19.8281 49.9693C20.0318 50.1828 20.3046 50.2902 20.5781 50.2902C20.8351 50.2902 21.0929 50.195 21.2935 50.0036L29.0255 42.625V51.9675C29.0255 52.5399 29.4894 53.004 30.0619 53.004C30.6345 53.004 31.0984 52.5399 31.0984 51.9675V42.5534L38.8478 49.6302C39.0467 49.8118 39.2969 49.9013 39.5465 49.9013C39.8275 49.9013 40.1077 49.7877 40.3121 49.5639C40.6981 49.1411 40.6684 48.4855 40.2458 48.0995L32.7341 41.2397H34.5962C35.0043 41.2397 35.3745 41.0002 35.5417 40.6278L36.8937 37.6172H38.9191L45.6623 40.773C45.802 40.8384 45.9519 40.8707 46.1016 40.8707C46.2956 40.8707 46.4889 40.8163 46.6578 40.7088C46.9569 40.5186 47.1381 40.1887 47.1381 39.8343V24.1266C47.1378 23.7721 46.9566 23.4424 46.6575 23.2521ZM30.2608 25.104C30.5426 25.5548 30.8744 25.9711 31.2502 26.3437H29.2715C29.6471 25.9711 29.979 25.5548 30.2608 25.104ZM36.0645 16.7228C38.6931 16.7228 40.8315 18.8614 40.8315 21.4901C40.8315 24.1187 38.693 26.2573 36.0645 26.2573C33.4359 26.2573 31.2973 24.1187 31.2973 21.4901C31.2973 18.8614 33.4357 16.7228 36.0645 16.7228ZM24.4571 16.7228C27.0857 16.7228 29.2243 18.8614 29.2243 21.4901C29.2243 24.1187 27.0857 26.2573 24.4571 26.2573C21.8285 26.2573 19.6899 24.1187 19.6899 21.4901C19.6899 18.8614 21.8283 16.7228 24.4571 16.7228ZM22.0113 28.4166H38.1129V35.5442H36.2226H23.9016H22.0113V28.4166ZM33.9251 39.1668H26.1988L25.5031 37.6172H34.6209L33.9251 39.1668ZM45.0648 38.2049L40.1858 35.9215V28.0395L45.0648 25.7561V38.2049Z" fill="#007AB9"/>
<path d="M17.7963 28.644C17.2238 28.644 16.7598 29.1081 16.7598 29.6805V34.2809C16.7598 34.8533 17.2238 35.3174 17.7963 35.3174C18.3688 35.3174 18.8328 34.8533 18.8328 34.2809V29.6805C18.8328 29.1081 18.3688 28.644 17.7963 28.644Z" fill="#007AB9"/>
</g>
<defs>
<clipPath id="clip0_76_1478">
<rect width="38.3541" height="38.3541" fill="white" transform="translate(12.7717 14.6499)"/>
</clipPath>
</defs>
</svg>
