<svg width="63" height="64" viewBox="0 0 63 64" fill="none" xmlns="http://www.w3.org/2000/svg">
<rect x="0.026123" y="0.559326" width="62.7141" height="62.7141" rx="15" fill="#FFF7E3"/>
<g clip-path="url(#clip0_76_1443)">
<path d="M37.1168 46.4772V41.6829C37.1168 41.0213 36.5799 40.4844 35.9183 40.4844H13.1455C12.4839 40.4844 11.947 41.0213 11.947 41.6829V46.4772C11.947 47.1388 12.4839 47.6758 13.1455 47.6758H35.9183C36.5799 47.6758 37.1168 47.1388 37.1168 46.4772ZM34.7197 45.2786H14.3441V42.8815H34.7197V45.2786Z" fill="#FF9900"/>
<path d="M15.5427 36.8887C14.8811 36.8887 14.3441 37.4256 14.3441 38.0872C14.3441 38.7488 14.8811 39.2858 15.5427 39.2858H33.5212C34.1828 39.2858 34.7197 38.7488 34.7197 38.0872C34.7197 37.4256 34.1828 36.8887 33.5212 36.8887H15.5427Z" fill="#FF9900"/>
<path d="M13.1455 35.6901H35.9183C36.5799 35.6901 37.1168 35.1531 37.1168 34.4915C37.1168 34.4076 36.973 26.1016 24.5319 26.1016C12.0908 26.1016 11.947 34.4076 11.947 34.4915C11.947 35.1531 12.4839 35.6901 13.1455 35.6901ZM24.5319 28.4987C31.764 28.4987 33.8627 31.5359 34.471 33.293H14.5928C15.2011 31.5359 17.2998 28.4987 24.5319 28.4987Z" fill="#FF9900"/>
<path d="M49.1024 23.7044H42.9262L41.8949 17.5144C41.7864 16.8612 41.1673 16.4225 40.5159 16.5292C39.8627 16.6382 39.4216 17.2555 39.5307 17.9081L40.4962 23.7044H39.5139C39.1843 23.7044 38.8697 23.8398 38.6432 24.0789C38.4172 24.318 38.2992 24.6404 38.3172 24.9689L39.5157 46.543C39.5511 47.1789 40.0761 47.6757 40.7125 47.6757H47.9039C48.5403 47.6757 49.0653 47.1789 49.1006 46.5436L50.2992 24.9695C50.3172 24.6404 50.1991 24.3186 49.9732 24.0795C49.7467 23.8398 49.432 23.7044 49.1024 23.7044ZM46.77 45.2785H41.8463L40.7808 26.1015H41.9063C41.9075 26.1015 41.9081 26.1015 41.9093 26.1015C41.9105 26.1015 41.9117 26.1015 41.9129 26.1015H47.835L46.77 45.2785Z" fill="#FF9900"/>
</g>
<defs>
<clipPath id="clip0_76_1443">
<rect x="11.947" y="13.5166" width="38.3541" height="38.3541" rx="10" fill="white"/>
</clipPath>
</defs>
</svg>
