<svg width="1440" height="343" viewBox="0 0 1440 343" fill="none" xmlns="http://www.w3.org/2000/svg">
<rect x="-72" width="1645" height="343" rx="75" fill="#F4F9FF"/>
<circle cx="1304.5" cy="25.5" r="3.5" fill="#DFEEFF"/>
<circle cx="1304.5" cy="52.5" r="3.5" fill="#DFEEFF"/>
<circle cx="1304.5" cy="79.5" r="3.5" fill="#DFEEFF"/>
<circle cx="1304.5" cy="106.5" r="3.5" fill="#DFEEFF"/>
<circle cx="1304.5" cy="133.5" r="3.5" fill="#DFEEFF"/>
<circle cx="1304.5" cy="160.5" r="3.5" fill="#DFEEFF"/>
<circle cx="1304.5" cy="187.5" r="3.5" fill="#DFEEFF"/>
<circle cx="1304.5" cy="214.5" r="3.5" fill="#DFEEFF"/>
<circle cx="1325.5" cy="25.5" r="3.5" fill="#DFEEFF"/>
<circle cx="1325.5" cy="52.5" r="3.5" fill="#DFEEFF"/>
<circle cx="1325.5" cy="79.5" r="3.5" fill="#DFEEFF"/>
<circle cx="1325.5" cy="106.5" r="3.5" fill="#DFEEFF"/>
<circle cx="1325.5" cy="133.5" r="3.5" fill="#DFEEFF"/>
<circle cx="1325.5" cy="160.5" r="3.5" fill="#DFEEFF"/>
<circle cx="1325.5" cy="187.5" r="3.5" fill="#DFEEFF"/>
<circle cx="1325.5" cy="214.5" r="3.5" fill="#DFEEFF"/>
<circle cx="1346.5" cy="25.5" r="3.5" fill="#DFEEFF"/>
<circle cx="1346.5" cy="52.5" r="3.5" fill="#DFEEFF"/>
<circle cx="1346.5" cy="79.5" r="3.5" fill="#DFEEFF"/>
<circle cx="1346.5" cy="106.5" r="3.5" fill="#DFEEFF"/>
<circle cx="1346.5" cy="133.5" r="3.5" fill="#DFEEFF"/>
<circle cx="1346.5" cy="160.5" r="3.5" fill="#DFEEFF"/>
<circle cx="1346.5" cy="187.5" r="3.5" fill="#DFEEFF"/>
<circle cx="1346.5" cy="214.5" r="3.5" fill="#DFEEFF"/>
<circle cx="1367.5" cy="25.5" r="3.5" fill="#DFEEFF"/>
<circle cx="1367.5" cy="52.5" r="3.5" fill="#DFEEFF"/>
<circle cx="1367.5" cy="79.5" r="3.5" fill="#DFEEFF"/>
<circle cx="1367.5" cy="106.5" r="3.5" fill="#DFEEFF"/>
<circle cx="1367.5" cy="133.5" r="3.5" fill="#DFEEFF"/>
<circle cx="1367.5" cy="160.5" r="3.5" fill="#DFEEFF"/>
<circle cx="1367.5" cy="187.5" r="3.5" fill="#DFEEFF"/>
<circle cx="1367.5" cy="214.5" r="3.5" fill="#DFEEFF"/>
<circle cx="1388.5" cy="25.5" r="3.5" fill="#DFEEFF"/>
<circle cx="1388.5" cy="52.5" r="3.5" fill="#DFEEFF"/>
<circle cx="1388.5" cy="79.5" r="3.5" fill="#DFEEFF"/>
<circle cx="1388.5" cy="106.5" r="3.5" fill="#DFEEFF"/>
<circle cx="1388.5" cy="133.5" r="3.5" fill="#DFEEFF"/>
<circle cx="1388.5" cy="160.5" r="3.5" fill="#DFEEFF"/>
<circle cx="1388.5" cy="187.5" r="3.5" fill="#DFEEFF"/>
<circle cx="1388.5" cy="214.5" r="3.5" fill="#DFEEFF"/>
<circle cx="1409.5" cy="25.5" r="3.5" fill="#DFEEFF"/>
<circle cx="1409.5" cy="52.5" r="3.5" fill="#DFEEFF"/>
<circle cx="1409.5" cy="79.5" r="3.5" fill="#DFEEFF"/>
<circle cx="1409.5" cy="106.5" r="3.5" fill="#DFEEFF"/>
<circle cx="1409.5" cy="133.5" r="3.5" fill="#DFEEFF"/>
<circle cx="1409.5" cy="160.5" r="3.5" fill="#DFEEFF"/>
<circle cx="1409.5" cy="187.5" r="3.5" fill="#DFEEFF"/>
<circle cx="1409.5" cy="214.5" r="3.5" fill="#DFEEFF"/>
<circle cx="1430.5" cy="25.5" r="3.5" fill="#DFEEFF"/>
<circle cx="1430.5" cy="52.5" r="3.5" fill="#DFEEFF"/>
<circle cx="1430.5" cy="79.5" r="3.5" fill="#DFEEFF"/>
<circle cx="1430.5" cy="106.5" r="3.5" fill="#DFEEFF"/>
<circle cx="1430.5" cy="133.5" r="3.5" fill="#DFEEFF"/>
<circle cx="1430.5" cy="160.5" r="3.5" fill="#DFEEFF"/>
<circle cx="1430.5" cy="187.5" r="3.5" fill="#DFEEFF"/>
<circle cx="1430.5" cy="214.5" r="3.5" fill="#DFEEFF"/>
</svg>
