<svg width="64" height="63" viewBox="0 0 64 63" fill="none" xmlns="http://www.w3.org/2000/svg">
<rect x="0.635803" y="0.187744" width="62.7141" height="62.7141" rx="15" fill="#DEFFEE"/>
<g clip-path="url(#clip0_76_1384)">
<path d="M16.2711 31.8041C16.2711 24.2706 16.2711 20.5039 18.6115 18.1636C20.9518 15.8232 24.7185 15.8232 32.252 15.8232C39.7854 15.8232 43.5522 15.8232 45.8924 18.1636C48.2328 20.5039 48.2328 24.2706 48.2328 31.8041C48.2328 39.3375 48.2328 43.1043 45.8924 45.4446C43.5522 47.785 39.7854 47.785 32.252 47.785C24.7185 47.785 20.9518 47.785 18.6115 45.4446C16.2711 43.1043 16.2711 39.3375 16.2711 31.8041Z" stroke="#20B15A" stroke-width="6"/>
<path d="M22.6635 25.4115V24.213C22.0015 24.213 21.4649 24.7496 21.4649 25.4115H22.6635ZM29.0558 26.6101C29.7177 26.6101 30.2544 26.0735 30.2544 25.4115C30.2544 24.7496 29.7177 24.213 29.0558 24.213V26.6101ZM29.0558 33.0024C29.7177 33.0024 30.2544 32.4658 30.2544 31.8039C30.2544 31.1419 29.7177 30.6053 29.0558 30.6053V33.0024ZM42.7994 26.1307C43.1965 25.6011 43.0893 24.8498 42.5596 24.4527C42.03 24.0555 41.2788 24.1628 40.8817 24.6924L42.7994 26.1307ZM31.2931 37.4771C30.896 38.0067 31.0032 38.7579 31.5328 39.1551C32.0625 39.5522 32.8137 39.445 33.2108 38.9154L31.2931 37.4771ZM33.2108 24.6924C32.8137 24.1628 32.0625 24.0555 31.5328 24.4527C31.0032 24.8498 30.896 25.6011 31.2931 26.1307L33.2108 24.6924ZM40.8817 38.9154C41.2788 39.445 42.03 39.5522 42.5596 39.1551C43.0893 38.7579 43.1965 38.0067 42.7994 37.4771L40.8817 38.9154ZM21.4649 38.1962C21.4649 38.8581 22.0015 39.3948 22.6635 39.3948C23.3254 39.3948 23.862 38.8581 23.862 38.1962H21.4649ZM22.6635 26.6101H29.0558V24.213H22.6635V26.6101ZM22.6635 33.0024H29.0558V30.6053H22.6635V33.0024ZM40.8817 24.6924L36.0874 31.0847L38.0051 32.523L42.7994 26.1307L40.8817 24.6924ZM36.0874 31.0847L31.2931 37.4771L33.2108 38.9154L38.0051 32.523L36.0874 31.0847ZM31.2931 26.1307L36.0874 32.523L38.0051 31.0847L33.2108 24.6924L31.2931 26.1307ZM36.0874 32.523L40.8817 38.9154L42.7994 37.4771L38.0051 31.0847L36.0874 32.523ZM21.4649 25.4115V31.8039H23.862V25.4115H21.4649ZM21.4649 31.8039V38.1962H23.862V31.8039H21.4649Z" fill="#20B15A"/>
</g>
<defs>
<clipPath id="clip0_76_1384">
<rect x="13.075" y="12.627" width="38.3541" height="38.3541" rx="19.177" fill="white"/>
</clipPath>
</defs>
</svg>
