<svg width="82" height="19" viewBox="0 0 82 19" fill="none" xmlns="http://www.w3.org/2000/svg">
<rect width="55" height="4" rx="2" transform="matrix(1 0 0 -1 0 11)" fill="#F4F4F4"/>
<rect width="4" height="4" rx="2" transform="matrix(1 0 0 -1 78 11)" fill="#F4F4F4"/>
<rect width="4" height="4" rx="2" transform="matrix(1 0 0 -1 11 4)" fill="#F4F4F4"/>
<rect width="4" height="4" rx="2" transform="matrix(1 0 0 -1 11 19)" fill="#F4F4F4"/>
<rect width="15" height="4" rx="2" transform="matrix(1 0 0 -1 60 11)" fill="#F4F4F4"/>
<rect width="8" height="4" rx="2" transform="matrix(1 0 0 -1 0 4)" fill="#F4F4F4"/>
<rect width="8" height="4" rx="2" transform="matrix(1 0 0 -1 0 19)" fill="#F4F4F4"/>
</svg>
