<svg width="82" height="19" viewBox="0 0 82 19" fill="none" xmlns="http://www.w3.org/2000/svg">
<rect width="55" height="4" rx="2" transform="matrix(-1 8.74228e-08 8.74228e-08 1 82 8)" fill="#F4F4F4"/>
<rect width="4" height="4" rx="2" transform="matrix(-1 8.74228e-08 8.74228e-08 1 4 8)" fill="#F4F4F4"/>
<rect width="4" height="4" rx="2" transform="matrix(-1 8.74228e-08 8.74228e-08 1 71 15)" fill="#F4F4F4"/>
<rect width="4" height="4" rx="2" transform="matrix(-1 8.74228e-08 8.74228e-08 1 71 0)" fill="#F4F4F4"/>
<rect width="15" height="4" rx="2" transform="matrix(-1 8.74228e-08 8.74228e-08 1 22 8)" fill="#F4F4F4"/>
<rect width="8" height="4" rx="2" transform="matrix(-1 8.74228e-08 8.74228e-08 1 82 15)" fill="#F4F4F4"/>
<rect width="8" height="4" rx="2" transform="matrix(-1 8.74228e-08 8.74228e-08 1 82 0)" fill="#F4F4F4"/>
</svg>
