<svg width="64" height="64" viewBox="0 0 64 64" fill="none" xmlns="http://www.w3.org/2000/svg">
<rect x="0.416077" y="0.700684" width="62.7141" height="62.7141" rx="15" fill="#DEFFEE"/>
<path d="M34.1189 41.8625L26.0191 44.5625C21.5997 46.0356 19.39 46.7721 18.2236 45.6057C17.0572 44.4392 17.7938 42.2296 19.2669 37.8102L21.9668 29.7103C23.191 26.0378 23.8031 24.2016 25.2514 23.8597C26.6996 23.5178 28.0683 24.8865 30.8056 27.6238L36.2055 33.0236C38.9427 35.761 40.3115 37.1296 39.9695 38.5779" stroke="#20B15A" stroke-width="3" stroke-linecap="round"/>
<path d="M32.408 41.9402C32.408 41.9402 31.1965 38.2947 31.1965 35.8821C31.1965 33.4693 32.408 29.8239 32.408 29.8239M25.7441 43.7576C25.7441 43.7576 24.7208 39.3598 24.5325 36.4879C24.2213 31.7427 25.7441 24.3716 25.7441 24.3716" stroke="#20B15A" stroke-width="3" stroke-linecap="round"/>
<path d="M36.0424 28.6121L36.2725 27.4615C36.5047 26.2999 37.3418 25.3518 38.4655 24.9772C39.5895 24.6026 40.4264 23.6545 40.6588 22.4928L40.8889 21.3423" stroke="#20B15A" stroke-width="2" stroke-linecap="round"/>
<path d="M40.9325 33.8015L41.2727 33.9979C42.3228 34.6042 43.6432 34.4704 44.5504 33.6659C45.372 32.9374 46.5419 32.7526 47.5481 33.1926L48.0139 33.3962" stroke="#20B15A" stroke-width="2" stroke-linecap="round"/>
<path d="M28.5087 17.0627C27.9694 17.945 28.1045 19.0818 28.8357 19.813L28.9921 19.9694C29.6204 20.5977 29.8522 21.5207 29.595 22.3713" stroke="#20B15A" stroke-width="2" stroke-linecap="round"/>
<path d="M23.9261 18.9193C24.2609 18.5845 24.8036 18.5845 25.1383 18.9193C25.4731 19.254 25.4731 19.7968 25.1383 20.1315C24.8036 20.4663 24.2609 20.4663 23.9261 20.1315C23.5914 19.7968 23.5914 19.254 23.9261 18.9193Z" fill="#20B15A"/>
<path d="M32.2833 24.0592C32.6181 23.7244 33.1608 23.7244 33.4956 24.0592C33.8303 24.3939 33.8303 24.9367 33.4956 25.2714C33.1608 25.6061 32.6181 25.6061 32.2833 25.2714C31.9485 24.9367 31.9485 24.3939 32.2833 24.0592Z" fill="#20B15A"/>
<path d="M40.2737 28.8536C40.6085 28.5189 41.1513 28.5189 41.4861 28.8536C41.8207 29.1884 41.8207 29.7311 41.4861 30.0659C41.1513 30.4006 40.6085 30.4006 40.2737 30.0659C39.9389 29.7311 39.9389 29.1884 40.2737 28.8536Z" fill="#20B15A"/>
<path d="M43.3119 37.0936C43.6467 36.7588 44.1894 36.7588 44.5242 37.0936C44.8588 37.4283 44.8588 37.971 44.5242 38.3058C44.1894 38.6406 43.6467 38.6406 43.3119 38.3058C42.9773 37.971 42.9773 37.4283 43.3119 37.0936Z" fill="#20B15A"/>
<path d="M43.7966 24.9498C42.7254 26.0209 43.494 29.1266 43.494 29.1266C43.494 29.1266 46.5998 29.8953 47.671 28.8241C48.8054 27.6897 48.1635 26.2006 46.4153 26.2053C46.4201 24.4572 44.931 23.8153 43.7966 24.9498Z" stroke="#20B15A" stroke-width="2" stroke-linejoin="round"/>
<path d="M37.1276 18.0831L37.0835 18.2383C37.0351 18.4088 37.0108 18.494 37.0223 18.5777C37.0336 18.6613 37.0795 18.734 37.1712 18.8792L37.2547 19.0115C37.5773 19.5228 37.7386 19.7784 37.6286 19.9875C37.5188 20.1966 37.2104 20.2206 36.5938 20.2688L36.4344 20.2812C36.259 20.2949 36.1715 20.3017 36.0949 20.342C36.0184 20.3823 35.9615 20.4514 35.8477 20.5896L35.744 20.7154C35.3435 21.2019 35.1433 21.4451 34.9149 21.4138C34.6865 21.3825 34.5812 21.0975 34.3706 20.5274L34.3161 20.3799C34.2562 20.2179 34.2263 20.1369 34.1675 20.0781C34.1087 20.0193 34.0276 19.9894 33.8656 19.9295L33.7181 19.875C33.148 19.6644 32.863 19.5591 32.8318 19.3307C32.8005 19.1023 33.0437 18.902 33.5302 18.5015L33.6559 18.3979C33.7942 18.2841 33.8634 18.2272 33.9035 18.1506C33.9437 18.074 33.9506 17.9864 33.9644 17.8112L33.9768 17.6517C34.0249 17.0351 34.049 16.7268 34.2581 16.6169C34.4671 16.507 34.7228 16.6683 35.234 16.9909L35.3664 17.0743C35.5116 17.166 35.5842 17.2118 35.6679 17.2233C35.7515 17.2348 35.8368 17.2105 36.0072 17.1621L36.1625 17.118C36.7623 16.9476 37.0622 16.8623 37.2227 17.0228C37.3831 17.1833 37.298 17.4833 37.1276 18.0831Z" stroke="#20B15A" stroke-width="2"/>
</svg>
