<svg width="64" height="64" viewBox="0 0 64 64" fill="none" xmlns="http://www.w3.org/2000/svg">
<rect x="0.517212" y="0.668701" width="62.7141" height="62.7141" rx="15" fill="#FFF2F8"/>
<path d="M20.6911 26.1803C19.6354 26.1803 18.6035 25.8673 17.7257 25.2808C16.8479 24.6943 16.1638 23.8607 15.7598 22.8854C15.3558 21.91 15.2501 20.8368 15.4561 19.8014C15.662 18.766 16.1704 17.815 16.9169 17.0685C17.6633 16.322 18.6144 15.8136 19.6498 15.6077C20.6852 15.4017 21.7584 15.5074 22.7337 15.9114C23.7091 16.3154 24.5427 16.9996 25.1292 17.8773C25.7157 18.7551 26.0287 19.7871 26.0287 20.8427" stroke="#FF5A5F" stroke-width="3" stroke-miterlimit="10" stroke-linecap="round"/>
<path d="M26.0287 43.7273C26.0287 44.7829 25.7157 45.8149 25.1292 46.6927C24.5427 47.5704 23.7091 48.2546 22.7337 48.6586C21.7584 49.0626 20.6852 49.1683 19.6498 48.9623C18.6144 48.7564 17.6633 48.248 16.9169 47.5015C16.1704 46.755 15.662 45.804 15.4561 44.7686C15.2501 43.7332 15.3558 42.66 15.7598 41.6846C16.1638 40.7093 16.8479 39.8757 17.7257 39.2892C18.6035 38.7027 19.6354 38.3896 20.6911 38.3896" stroke="#FF5A5F" stroke-width="3" stroke-miterlimit="10" stroke-linecap="round"/>
<path d="M38.2381 20.8427C38.2381 19.7871 38.5511 18.7551 39.1376 17.8773C39.7242 16.9996 40.5578 16.3154 41.5331 15.9114C42.5084 15.5074 43.5816 15.4017 44.617 15.6077C45.6524 15.8136 46.6035 16.322 47.35 17.0685C48.0964 17.815 48.6048 18.766 48.8108 19.8014C49.0167 20.8368 48.911 21.91 48.507 22.8854C48.103 23.8607 47.4189 24.6943 46.5411 25.2808C45.6634 25.8673 44.6314 26.1803 43.5757 26.1803" stroke="#FF5A5F" stroke-width="3" stroke-miterlimit="10" stroke-linecap="round"/>
<path d="M43.5757 38.3896C44.6314 38.3896 45.6634 38.7027 46.5411 39.2892C47.4189 39.8757 48.103 40.7093 48.507 41.6846C48.911 42.66 49.0167 43.7332 48.8108 44.7686C48.6048 45.804 48.0964 46.755 47.35 47.5015C46.6035 48.248 45.6524 48.7564 44.617 48.9623C43.5816 49.1683 42.5084 49.0626 41.5331 48.6586C40.5578 48.2546 39.7242 47.5704 39.1376 46.6927C38.5511 45.8149 38.2381 44.7829 38.2381 43.7273" stroke="#FF5A5F" stroke-width="3" stroke-miterlimit="10" stroke-linecap="round"/>
<path d="M44.3428 44.4943L36.7039 36.8555" stroke="#FF5A5F" stroke-width="3" stroke-miterlimit="10" stroke-linecap="round"/>
<path d="M27.5629 27.7145L19.924 20.0757" stroke="#FF5A5F" stroke-width="3" stroke-miterlimit="10" stroke-linecap="round"/>
<path d="M27.5629 36.8555L19.924 44.4943" stroke="#FF5A5F" stroke-width="3" stroke-miterlimit="10" stroke-linecap="round"/>
<path d="M44.3428 20.0757L36.7039 27.7145" stroke="#FF5A5F" stroke-width="3" stroke-miterlimit="10" stroke-linecap="round"/>
<path d="M36.7039 27.7143V36.8554C36.7039 37.4556 36.5857 38.0499 36.356 38.6044C36.1263 39.159 35.7897 39.6628 35.3652 40.0872C34.9408 40.5116 34.437 40.8483 33.8825 41.078C33.3279 41.3077 32.7336 41.4259 32.1334 41.4259C31.5332 41.4259 30.9388 41.3077 30.3843 41.078C29.8298 40.8483 29.326 40.5116 28.9015 40.0872C28.4771 39.6628 28.1405 39.159 27.9108 38.6044C27.6811 38.0499 27.5629 37.4556 27.5629 36.8554V27.7143C27.5629 27.1141 27.6811 26.5198 27.9108 25.9653C28.1405 25.4107 28.4771 24.9069 28.9015 24.4825C29.326 24.0581 29.8298 23.7214 30.3843 23.4917C30.9388 23.262 31.5332 23.1438 32.1334 23.1438C32.7336 23.1438 33.3279 23.262 33.8825 23.4917C34.437 23.7214 34.9408 24.0581 35.3652 24.4825C35.7897 24.9069 36.1263 25.4107 36.356 25.9653C36.5857 26.5198 36.7039 27.1141 36.7039 27.7143Z" stroke="#FF5A5F" stroke-width="3" stroke-miterlimit="10" stroke-linecap="round"/>
</svg>
