<svg width="63" height="63" viewBox="0 0 63 63" fill="none" xmlns="http://www.w3.org/2000/svg">
<rect x="0.0782471" y="0.0144043" width="62.8986" height="62.8986" rx="15" fill="#DEFFEE"/>
<g clip-path="url(#clip0_76_1487)">
<path d="M48.0863 22.6111H44.1949V21.3863C44.1949 19.7294 42.8449 18.384 41.187 18.384H23.1261C21.4681 18.384 20.1181 19.7294 20.1181 21.3863V22.6111H16.2268C14.6775 22.6111 13.416 23.8682 13.416 25.4167V42.3668C13.416 43.9154 14.6776 45.1724 16.2268 45.1724H48.0863C49.6355 45.1724 50.8971 43.9153 50.8971 42.3668V25.4167C50.8971 23.8682 49.6355 22.6111 48.0863 22.6111ZM22.337 22.6111C22.4237 21.309 23.5074 20.2796 24.8315 20.2796H39.4816C40.8057 20.2796 41.8894 21.309 41.976 22.6111H22.337ZM48.6838 42.3668C48.6838 42.6934 48.4164 42.9618 48.0863 42.9618H16.2268C15.8967 42.9618 15.6293 42.6934 15.6293 42.3668V25.4167C15.6293 25.0901 15.8967 24.8217 16.2268 24.8217H48.0863C48.4163 24.8217 48.6838 25.0902 48.6838 25.4167V42.3668Z" fill="#20B15A" stroke="#20B15A"/>
<path d="M21.7783 33.3506C19.5239 33.3506 17.6899 35.1847 17.6899 37.439C17.6899 39.6933 19.524 41.5274 21.7783 41.5274C24.0326 41.5274 25.8667 39.6933 25.8667 37.439C25.8667 35.1846 24.0326 33.3506 21.7783 33.3506Z" fill="#20B15A"/>
<path d="M42.5348 33.3506C40.2805 33.3506 38.4464 35.1847 38.4464 37.439C38.4464 39.6933 40.2805 41.5274 42.5348 41.5274C44.7892 41.5274 46.6232 39.6933 46.6232 37.439C46.6233 35.1846 44.7892 33.3506 42.5348 33.3506Z" fill="#20B15A"/>
<path d="M43.1638 26.4319C41.9499 26.4319 40.9623 27.4195 40.9623 28.6333C40.9623 29.8472 41.9499 30.8348 43.1638 30.8348C44.3777 30.8348 45.3652 29.8472 45.3652 28.6333C45.3652 27.4195 44.3777 26.4319 43.1638 26.4319ZM43.1638 30.0322C42.3925 30.0322 41.765 29.4046 41.765 28.6333C41.765 27.862 42.3925 27.2345 43.1638 27.2345C43.9352 27.2345 44.5626 27.862 44.5626 28.6333C44.5626 29.4046 43.9351 30.0322 43.1638 30.0322Z" fill="#20B15A"/>
<path d="M43.1638 26.4319C41.9499 26.4319 40.9623 27.4195 40.9623 28.6333C40.9623 29.8472 41.9499 30.8348 43.1638 30.8348C44.3777 30.8348 45.3652 29.8472 45.3652 28.6333C45.3652 27.4195 44.3777 26.4319 43.1638 26.4319ZM43.1638 30.0322C42.3925 30.0322 41.765 29.4046 41.765 28.6333C41.765 27.862 42.3925 27.2345 43.1638 27.2345C43.9352 27.2345 44.5626 27.862 44.5626 28.6333C44.5626 29.4046 43.9351 30.0322 43.1638 30.0322Z" stroke="#20B15A"/>
<path d="M21.1493 26.4319C19.9354 26.4319 18.9478 27.4195 18.9478 28.6333C18.9478 29.8472 19.9354 30.8348 21.1493 30.8348C22.3632 30.8348 23.3507 29.8472 23.3507 28.6333C23.3507 27.4195 22.3631 26.4319 21.1493 26.4319ZM21.1493 30.0322C20.378 30.0322 19.7504 29.4046 19.7504 28.6333C19.7504 27.862 20.378 27.2345 21.1493 27.2345C21.9206 27.2345 22.5481 27.862 22.5481 28.6333C22.5481 29.4046 21.9206 30.0322 21.1493 30.0322Z" fill="#20B15A"/>
<path d="M21.1493 26.4319C19.9354 26.4319 18.9478 27.4195 18.9478 28.6333C18.9478 29.8472 19.9354 30.8348 21.1493 30.8348C22.3632 30.8348 23.3507 29.8472 23.3507 28.6333C23.3507 27.4195 22.3631 26.4319 21.1493 26.4319ZM21.1493 30.0322C20.378 30.0322 19.7504 29.4046 19.7504 28.6333C19.7504 27.862 20.378 27.2345 21.1493 27.2345C21.9206 27.2345 22.5481 27.862 22.5481 28.6333C22.5481 29.4046 21.9206 30.0322 21.1493 30.0322Z" stroke="#20B15A"/>
<path d="M36.4728 31.6267H27.9718C27.6195 31.6267 27.3338 31.9124 27.3338 32.2648V38.3966C27.3338 38.749 27.6195 39.0346 27.9718 39.0346H36.4728C36.8251 39.0346 37.1108 38.749 37.1108 38.3966V32.2648C37.1108 31.9124 36.8251 31.6267 36.4728 31.6267ZM35.8347 37.7585H28.6099V32.9028H35.8347V37.7585Z" fill="#20B15A"/>
<path d="M30.2234 35.8616C30.4588 36.0168 30.7771 35.9997 30.992 35.8158C31.182 35.6532 31.2608 35.3849 31.1879 35.1455C31.107 34.8796 30.8552 34.6931 30.5773 34.6926C30.3107 34.6921 30.067 34.8658 29.9772 35.1157C29.8784 35.3904 29.984 35.6981 30.2234 35.8616C30.2583 35.8846 30.1885 35.8378 30.2234 35.8616Z" fill="#20B15A"/>
<path d="M33.2783 35.5749C33.3092 35.652 33.3566 35.7237 33.4162 35.7817C33.6557 36.0283 34.0784 36.0283 34.3179 35.7817C34.5645 35.5422 34.5646 35.1195 34.3179 34.8799C34.0785 34.6335 33.6556 34.6335 33.4162 34.8799C33.2342 35.0567 33.1803 35.3424 33.2783 35.5749C33.2937 35.6132 33.2622 35.5367 33.2783 35.5749Z" fill="#20B15A"/>
<path d="M35.2629 28.9477C35.6316 28.9477 35.9304 28.5253 35.9304 28.0043C35.9304 27.4832 35.6316 27.0608 35.2629 27.0608H27.1632C26.7945 27.0608 26.4957 27.4832 26.4957 28.0043C26.4957 28.5253 26.7945 28.9477 27.1632 28.9477H35.2629Z" fill="#20B15A"/>
<path d="M38.3801 27.6395C38.1256 27.0379 37.3 26.8546 36.8334 27.333C36.2922 27.8574 36.6028 28.793 37.3282 28.9308C38.0648 29.0705 38.6482 28.322 38.3801 27.6395C38.4028 27.6976 38.356 27.5828 38.3801 27.6395Z" fill="#20B15A"/>
</g>
<defs>
<clipPath id="clip0_76_1487">
<rect width="38.3681" height="38.3681" fill="white" transform="translate(13.0383 11.8335)"/>
</clipPath>
</defs>
</svg>
