<svg width="1440" height="852" viewBox="0 0 1440 852" fill="none" xmlns="http://www.w3.org/2000/svg">
<path d="M1440 852L1440 184C1440 82.3796 1357.62 -5.74342e-05 1256 -5.29923e-05L-1.00004 1.95295e-06L-1.00001 692C-1 780.366 70.6344 852 159 852L1440 852Z" fill="url(#paint0_linear_134_287)"/>
<circle cx="1170.5" cy="288.5" r="148.5" stroke="#21B26C" stroke-width="12"/>
<circle cx="3.5" cy="3.5" r="3.5" transform="matrix(-1 0 0 1 229 76)" fill="#E7F0FC" fill-opacity="0.1"/>
<circle cx="3.5" cy="3.5" r="3.5" transform="matrix(-1 0 0 1 229 97)" fill="#E7F0FC" fill-opacity="0.1"/>
<circle cx="3.5" cy="3.5" r="3.5" transform="matrix(-1 0 0 1 229 118)" fill="#E7F0FC" fill-opacity="0.1"/>
<circle cx="3.5" cy="3.5" r="3.5" transform="matrix(-1 0 0 1 229 139)" fill="#E7F0FC" fill-opacity="0.1"/>
<circle cx="3.5" cy="3.5" r="3.5" transform="matrix(-1 0 0 1 229 160)" fill="#E7F0FC" fill-opacity="0.1"/>
<circle cx="3.5" cy="3.5" r="3.5" transform="matrix(-1 0 0 1 229 181)" fill="#E7F0FC" fill-opacity="0.1"/>
<circle cx="3.5" cy="3.5" r="3.5" transform="matrix(-1 0 0 1 229 202)" fill="#E7F0FC" fill-opacity="0.1"/>
<circle cx="3.5" cy="3.5" r="3.5" transform="matrix(-1 0 0 1 229 223)" fill="#E7F0FC" fill-opacity="0.1"/>
<circle cx="3.5" cy="3.5" r="3.5" transform="matrix(-1 0 0 1 208 76)" fill="#E7F0FC" fill-opacity="0.1"/>
<circle cx="3.5" cy="3.5" r="3.5" transform="matrix(-1 0 0 1 208 97)" fill="#E7F0FC" fill-opacity="0.1"/>
<circle cx="3.5" cy="3.5" r="3.5" transform="matrix(-1 0 0 1 208 118)" fill="#E7F0FC" fill-opacity="0.1"/>
<circle cx="3.5" cy="3.5" r="3.5" transform="matrix(-1 0 0 1 208 139)" fill="#E7F0FC" fill-opacity="0.1"/>
<circle cx="3.5" cy="3.5" r="3.5" transform="matrix(-1 0 0 1 208 160)" fill="#E7F0FC" fill-opacity="0.1"/>
<circle cx="3.5" cy="3.5" r="3.5" transform="matrix(-1 0 0 1 208 181)" fill="#E7F0FC" fill-opacity="0.1"/>
<circle cx="3.5" cy="3.5" r="3.5" transform="matrix(-1 0 0 1 208 202)" fill="#E7F0FC" fill-opacity="0.1"/>
<circle cx="3.5" cy="3.5" r="3.5" transform="matrix(-1 0 0 1 208 223)" fill="#E7F0FC" fill-opacity="0.1"/>
<circle cx="3.5" cy="3.5" r="3.5" transform="matrix(-1 0 0 1 187 76)" fill="#E7F0FC" fill-opacity="0.1"/>
<circle cx="3.5" cy="3.5" r="3.5" transform="matrix(-1 0 0 1 187 97)" fill="#E7F0FC" fill-opacity="0.1"/>
<circle cx="3.5" cy="3.5" r="3.5" transform="matrix(-1 0 0 1 187 118)" fill="#E7F0FC" fill-opacity="0.1"/>
<circle cx="3.5" cy="3.5" r="3.5" transform="matrix(-1 0 0 1 187 139)" fill="#E7F0FC" fill-opacity="0.1"/>
<circle cx="3.5" cy="3.5" r="3.5" transform="matrix(-1 0 0 1 187 160)" fill="#E7F0FC" fill-opacity="0.1"/>
<circle cx="3.5" cy="3.5" r="3.5" transform="matrix(-1 0 0 1 187 181)" fill="#E7F0FC" fill-opacity="0.1"/>
<circle cx="3.5" cy="3.5" r="3.5" transform="matrix(-1 0 0 1 187 202)" fill="#E7F0FC" fill-opacity="0.1"/>
<circle cx="3.5" cy="3.5" r="3.5" transform="matrix(-1 0 0 1 187 223)" fill="#E7F0FC" fill-opacity="0.1"/>
<circle cx="3.5" cy="3.5" r="3.5" transform="matrix(-1 0 0 1 166 76)" fill="#E7F0FC" fill-opacity="0.1"/>
<circle cx="3.5" cy="3.5" r="3.5" transform="matrix(-1 0 0 1 166 97)" fill="#E7F0FC" fill-opacity="0.1"/>
<circle cx="3.5" cy="3.5" r="3.5" transform="matrix(-1 0 0 1 166 118)" fill="#E7F0FC" fill-opacity="0.1"/>
<circle cx="3.5" cy="3.5" r="3.5" transform="matrix(-1 0 0 1 166 139)" fill="#E7F0FC" fill-opacity="0.1"/>
<circle cx="3.5" cy="3.5" r="3.5" transform="matrix(-1 0 0 1 166 160)" fill="#E7F0FC" fill-opacity="0.1"/>
<circle cx="3.5" cy="3.5" r="3.5" transform="matrix(-1 0 0 1 166 181)" fill="#E7F0FC" fill-opacity="0.1"/>
<circle cx="3.5" cy="3.5" r="3.5" transform="matrix(-1 0 0 1 166 202)" fill="#E7F0FC" fill-opacity="0.1"/>
<circle cx="3.5" cy="3.5" r="3.5" transform="matrix(-1 0 0 1 166 223)" fill="#E7F0FC" fill-opacity="0.1"/>
<circle cx="3.5" cy="3.5" r="3.5" transform="matrix(-1 0 0 1 145 76)" fill="#E7F0FC" fill-opacity="0.1"/>
<circle cx="3.5" cy="3.5" r="3.5" transform="matrix(-1 0 0 1 145 97)" fill="#E7F0FC" fill-opacity="0.1"/>
<circle cx="3.5" cy="3.5" r="3.5" transform="matrix(-1 0 0 1 145 118)" fill="#E7F0FC" fill-opacity="0.1"/>
<circle cx="3.5" cy="3.5" r="3.5" transform="matrix(-1 0 0 1 145 139)" fill="#E7F0FC" fill-opacity="0.1"/>
<circle cx="3.5" cy="3.5" r="3.5" transform="matrix(-1 0 0 1 145 160)" fill="#E7F0FC" fill-opacity="0.1"/>
<circle cx="3.5" cy="3.5" r="3.5" transform="matrix(-1 0 0 1 145 181)" fill="#E7F0FC" fill-opacity="0.1"/>
<circle cx="3.5" cy="3.5" r="3.5" transform="matrix(-1 0 0 1 145 202)" fill="#E7F0FC" fill-opacity="0.1"/>
<circle cx="3.5" cy="3.5" r="3.5" transform="matrix(-1 0 0 1 145 223)" fill="#E7F0FC" fill-opacity="0.1"/>
<circle cx="3.5" cy="3.5" r="3.5" transform="matrix(-1 0 0 1 124 76)" fill="#E7F0FC" fill-opacity="0.1"/>
<circle cx="3.5" cy="3.5" r="3.5" transform="matrix(-1 0 0 1 124 97)" fill="#E7F0FC" fill-opacity="0.1"/>
<circle cx="3.5" cy="3.5" r="3.5" transform="matrix(-1 0 0 1 124 118)" fill="#E7F0FC" fill-opacity="0.1"/>
<circle cx="3.5" cy="3.5" r="3.5" transform="matrix(-1 0 0 1 124 139)" fill="#E7F0FC" fill-opacity="0.1"/>
<circle cx="3.5" cy="3.5" r="3.5" transform="matrix(-1 0 0 1 124 160)" fill="#E7F0FC" fill-opacity="0.1"/>
<circle cx="3.5" cy="3.5" r="3.5" transform="matrix(-1 0 0 1 124 181)" fill="#E7F0FC" fill-opacity="0.1"/>
<circle cx="3.5" cy="3.5" r="3.5" transform="matrix(-1 0 0 1 124 202)" fill="#E7F0FC" fill-opacity="0.1"/>
<circle cx="3.5" cy="3.5" r="3.5" transform="matrix(-1 0 0 1 124 223)" fill="#E7F0FC" fill-opacity="0.1"/>
<circle cx="3.5" cy="3.5" r="3.5" transform="matrix(-1 0 0 1 103 76)" fill="#E7F0FC" fill-opacity="0.1"/>
<circle cx="3.5" cy="3.5" r="3.5" transform="matrix(-1 0 0 1 103 97)" fill="#E7F0FC" fill-opacity="0.1"/>
<circle cx="3.5" cy="3.5" r="3.5" transform="matrix(-1 0 0 1 103 118)" fill="#E7F0FC" fill-opacity="0.1"/>
<circle cx="3.5" cy="3.5" r="3.5" transform="matrix(-1 0 0 1 103 139)" fill="#E7F0FC" fill-opacity="0.1"/>
<circle cx="3.5" cy="3.5" r="3.5" transform="matrix(-1 0 0 1 103 160)" fill="#E7F0FC" fill-opacity="0.1"/>
<circle cx="3.5" cy="3.5" r="3.5" transform="matrix(-1 0 0 1 103 181)" fill="#E7F0FC" fill-opacity="0.1"/>
<circle cx="3.5" cy="3.5" r="3.5" transform="matrix(-1 0 0 1 103 202)" fill="#E7F0FC" fill-opacity="0.1"/>
<circle cx="3.5" cy="3.5" r="3.5" transform="matrix(-1 0 0 1 103 223)" fill="#E7F0FC" fill-opacity="0.1"/>
<circle cx="3.5" cy="3.5" r="3.5" transform="matrix(-1 0 0 1 81.9996 76)" fill="#E7F0FC" fill-opacity="0.1"/>
<circle cx="3.5" cy="3.5" r="3.5" transform="matrix(-1 0 0 1 81.9996 97)" fill="#E7F0FC" fill-opacity="0.1"/>
<circle cx="3.5" cy="3.5" r="3.5" transform="matrix(-1 0 0 1 81.9996 118)" fill="#E7F0FC" fill-opacity="0.1"/>
<circle cx="3.5" cy="3.5" r="3.5" transform="matrix(-1 0 0 1 81.9996 139)" fill="#E7F0FC" fill-opacity="0.1"/>
<circle cx="3.5" cy="3.5" r="3.5" transform="matrix(-1 0 0 1 81.9996 160)" fill="#E7F0FC" fill-opacity="0.1"/>
<circle cx="3.5" cy="3.5" r="3.5" transform="matrix(-1 0 0 1 81.9996 181)" fill="#E7F0FC" fill-opacity="0.1"/>
<circle cx="3.5" cy="3.5" r="3.5" transform="matrix(-1 0 0 1 81.9996 202)" fill="#E7F0FC" fill-opacity="0.1"/>
<circle cx="3.5" cy="3.5" r="3.5" transform="matrix(-1 0 0 1 81.9996 223)" fill="#E7F0FC" fill-opacity="0.1"/>
<circle cx="3.5" cy="3.5" r="3.5" transform="matrix(-1 0 0 1 60.9996 76)" fill="#E7F0FC" fill-opacity="0.1"/>
<circle cx="3.5" cy="3.5" r="3.5" transform="matrix(-1 0 0 1 60.9996 97)" fill="#E7F0FC" fill-opacity="0.1"/>
<circle cx="3.5" cy="3.5" r="3.5" transform="matrix(-1 0 0 1 60.9996 118)" fill="#E7F0FC" fill-opacity="0.1"/>
<circle cx="3.5" cy="3.5" r="3.5" transform="matrix(-1 0 0 1 60.9996 139)" fill="#E7F0FC" fill-opacity="0.1"/>
<circle cx="3.5" cy="3.5" r="3.5" transform="matrix(-1 0 0 1 60.9996 160)" fill="#E7F0FC" fill-opacity="0.1"/>
<circle cx="3.5" cy="3.5" r="3.5" transform="matrix(-1 0 0 1 60.9996 181)" fill="#E7F0FC" fill-opacity="0.1"/>
<circle cx="3.5" cy="3.5" r="3.5" transform="matrix(-1 0 0 1 60.9996 202)" fill="#E7F0FC" fill-opacity="0.1"/>
<circle cx="3.5" cy="3.5" r="3.5" transform="matrix(-1 0 0 1 60.9996 223)" fill="#E7F0FC" fill-opacity="0.1"/>
<circle cx="3.5" cy="3.5" r="3.5" transform="matrix(-1 0 0 1 39.9996 76)" fill="#E7F0FC" fill-opacity="0.1"/>
<circle cx="3.5" cy="3.5" r="3.5" transform="matrix(-1 0 0 1 39.9996 97)" fill="#E7F0FC" fill-opacity="0.1"/>
<circle cx="3.5" cy="3.5" r="3.5" transform="matrix(-1 0 0 1 39.9996 118)" fill="#E7F0FC" fill-opacity="0.1"/>
<circle cx="3.5" cy="3.5" r="3.5" transform="matrix(-1 0 0 1 39.9996 139)" fill="#E7F0FC" fill-opacity="0.1"/>
<circle cx="3.5" cy="3.5" r="3.5" transform="matrix(-1 0 0 1 39.9996 160)" fill="#E7F0FC" fill-opacity="0.1"/>
<circle cx="3.5" cy="3.5" r="3.5" transform="matrix(-1 0 0 1 39.9996 181)" fill="#E7F0FC" fill-opacity="0.1"/>
<circle cx="3.5" cy="3.5" r="3.5" transform="matrix(-1 0 0 1 39.9996 202)" fill="#E7F0FC" fill-opacity="0.1"/>
<circle cx="3.5" cy="3.5" r="3.5" transform="matrix(-1 0 0 1 39.9996 223)" fill="#E7F0FC" fill-opacity="0.1"/>
<circle cx="3.5" cy="3.5" r="3.5" transform="matrix(-1 0 0 1 438 76)" fill="#E7F0FC" fill-opacity="0.1"/>
<circle cx="3.5" cy="3.5" r="3.5" transform="matrix(-1 0 0 1 438 97)" fill="#E7F0FC" fill-opacity="0.1"/>
<circle cx="3.5" cy="3.5" r="3.5" transform="matrix(-1 0 0 1 438 118)" fill="#E7F0FC" fill-opacity="0.1"/>
<circle cx="3.5" cy="3.5" r="3.5" transform="matrix(-1 0 0 1 438 139)" fill="#E7F0FC" fill-opacity="0.1"/>
<circle cx="3.5" cy="3.5" r="3.5" transform="matrix(-1 0 0 1 438 160)" fill="#E7F0FC" fill-opacity="0.1"/>
<circle cx="3.5" cy="3.5" r="3.5" transform="matrix(-1 0 0 1 438 181)" fill="#E7F0FC" fill-opacity="0.1"/>
<circle cx="3.5" cy="3.5" r="3.5" transform="matrix(-1 0 0 1 438 202)" fill="#E7F0FC" fill-opacity="0.1"/>
<circle cx="3.5" cy="3.5" r="3.5" transform="matrix(-1 0 0 1 438 223)" fill="#E7F0FC" fill-opacity="0.1"/>
<circle cx="3.5" cy="3.5" r="3.5" transform="matrix(-1 0 0 1 417 76)" fill="#E7F0FC" fill-opacity="0.1"/>
<circle cx="3.5" cy="3.5" r="3.5" transform="matrix(-1 0 0 1 417 97)" fill="#E7F0FC" fill-opacity="0.1"/>
<circle cx="3.5" cy="3.5" r="3.5" transform="matrix(-1 0 0 1 417 118)" fill="#E7F0FC" fill-opacity="0.1"/>
<circle cx="3.5" cy="3.5" r="3.5" transform="matrix(-1 0 0 1 417 139)" fill="#E7F0FC" fill-opacity="0.1"/>
<circle cx="3.5" cy="3.5" r="3.5" transform="matrix(-1 0 0 1 417 160)" fill="#E7F0FC" fill-opacity="0.1"/>
<circle cx="3.5" cy="3.5" r="3.5" transform="matrix(-1 0 0 1 417 181)" fill="#E7F0FC" fill-opacity="0.1"/>
<circle cx="3.5" cy="3.5" r="3.5" transform="matrix(-1 0 0 1 417 202)" fill="#E7F0FC" fill-opacity="0.1"/>
<circle cx="3.5" cy="3.5" r="3.5" transform="matrix(-1 0 0 1 417 223)" fill="#E7F0FC" fill-opacity="0.1"/>
<circle cx="3.5" cy="3.5" r="3.5" transform="matrix(-1 0 0 1 396 76)" fill="#E7F0FC" fill-opacity="0.1"/>
<circle cx="3.5" cy="3.5" r="3.5" transform="matrix(-1 0 0 1 396 97)" fill="#E7F0FC" fill-opacity="0.1"/>
<circle cx="3.5" cy="3.5" r="3.5" transform="matrix(-1 0 0 1 396 118)" fill="#E7F0FC" fill-opacity="0.1"/>
<circle cx="3.5" cy="3.5" r="3.5" transform="matrix(-1 0 0 1 396 139)" fill="#E7F0FC" fill-opacity="0.1"/>
<circle cx="3.5" cy="3.5" r="3.5" transform="matrix(-1 0 0 1 396 160)" fill="#E7F0FC" fill-opacity="0.1"/>
<circle cx="3.5" cy="3.5" r="3.5" transform="matrix(-1 0 0 1 396 181)" fill="#E7F0FC" fill-opacity="0.1"/>
<circle cx="3.5" cy="3.5" r="3.5" transform="matrix(-1 0 0 1 396 202)" fill="#E7F0FC" fill-opacity="0.1"/>
<circle cx="3.5" cy="3.5" r="3.5" transform="matrix(-1 0 0 1 396 223)" fill="#E7F0FC" fill-opacity="0.1"/>
<circle cx="3.5" cy="3.5" r="3.5" transform="matrix(-1 0 0 1 375 76)" fill="#E7F0FC" fill-opacity="0.1"/>
<circle cx="3.5" cy="3.5" r="3.5" transform="matrix(-1 0 0 1 375 97)" fill="#E7F0FC" fill-opacity="0.1"/>
<circle cx="3.5" cy="3.5" r="3.5" transform="matrix(-1 0 0 1 375 118)" fill="#E7F0FC" fill-opacity="0.1"/>
<circle cx="3.5" cy="3.5" r="3.5" transform="matrix(-1 0 0 1 375 139)" fill="#E7F0FC" fill-opacity="0.1"/>
<circle cx="3.5" cy="3.5" r="3.5" transform="matrix(-1 0 0 1 375 160)" fill="#E7F0FC" fill-opacity="0.1"/>
<circle cx="3.5" cy="3.5" r="3.5" transform="matrix(-1 0 0 1 375 181)" fill="#E7F0FC" fill-opacity="0.1"/>
<circle cx="3.5" cy="3.5" r="3.5" transform="matrix(-1 0 0 1 375 202)" fill="#E7F0FC" fill-opacity="0.1"/>
<circle cx="3.5" cy="3.5" r="3.5" transform="matrix(-1 0 0 1 375 223)" fill="#E7F0FC" fill-opacity="0.1"/>
<circle cx="3.5" cy="3.5" r="3.5" transform="matrix(-1 0 0 1 354 76)" fill="#E7F0FC" fill-opacity="0.1"/>
<circle cx="3.5" cy="3.5" r="3.5" transform="matrix(-1 0 0 1 354 97)" fill="#E7F0FC" fill-opacity="0.1"/>
<circle cx="3.5" cy="3.5" r="3.5" transform="matrix(-1 0 0 1 354 118)" fill="#E7F0FC" fill-opacity="0.1"/>
<circle cx="3.5" cy="3.5" r="3.5" transform="matrix(-1 0 0 1 354 139)" fill="#E7F0FC" fill-opacity="0.1"/>
<circle cx="3.5" cy="3.5" r="3.5" transform="matrix(-1 0 0 1 354 160)" fill="#E7F0FC" fill-opacity="0.1"/>
<circle cx="3.5" cy="3.5" r="3.5" transform="matrix(-1 0 0 1 354 181)" fill="#E7F0FC" fill-opacity="0.1"/>
<circle cx="3.5" cy="3.5" r="3.5" transform="matrix(-1 0 0 1 354 202)" fill="#E7F0FC" fill-opacity="0.1"/>
<circle cx="3.5" cy="3.5" r="3.5" transform="matrix(-1 0 0 1 354 223)" fill="#E7F0FC" fill-opacity="0.1"/>
<circle cx="3.5" cy="3.5" r="3.5" transform="matrix(-1 0 0 1 333 76)" fill="#E7F0FC" fill-opacity="0.1"/>
<circle cx="3.5" cy="3.5" r="3.5" transform="matrix(-1 0 0 1 333 97)" fill="#E7F0FC" fill-opacity="0.1"/>
<circle cx="3.5" cy="3.5" r="3.5" transform="matrix(-1 0 0 1 333 118)" fill="#E7F0FC" fill-opacity="0.1"/>
<circle cx="3.5" cy="3.5" r="3.5" transform="matrix(-1 0 0 1 333 139)" fill="#E7F0FC" fill-opacity="0.1"/>
<circle cx="3.5" cy="3.5" r="3.5" transform="matrix(-1 0 0 1 333 160)" fill="#E7F0FC" fill-opacity="0.1"/>
<circle cx="3.5" cy="3.5" r="3.5" transform="matrix(-1 0 0 1 333 181)" fill="#E7F0FC" fill-opacity="0.1"/>
<circle cx="3.5" cy="3.5" r="3.5" transform="matrix(-1 0 0 1 333 202)" fill="#E7F0FC" fill-opacity="0.1"/>
<circle cx="3.5" cy="3.5" r="3.5" transform="matrix(-1 0 0 1 333 223)" fill="#E7F0FC" fill-opacity="0.1"/>
<circle cx="3.5" cy="3.5" r="3.5" transform="matrix(-1 0 0 1 312 76)" fill="#E7F0FC" fill-opacity="0.1"/>
<circle cx="3.5" cy="3.5" r="3.5" transform="matrix(-1 0 0 1 312 97)" fill="#E7F0FC" fill-opacity="0.1"/>
<circle cx="3.5" cy="3.5" r="3.5" transform="matrix(-1 0 0 1 312 118)" fill="#E7F0FC" fill-opacity="0.1"/>
<circle cx="3.5" cy="3.5" r="3.5" transform="matrix(-1 0 0 1 312 139)" fill="#E7F0FC" fill-opacity="0.1"/>
<circle cx="3.5" cy="3.5" r="3.5" transform="matrix(-1 0 0 1 312 160)" fill="#E7F0FC" fill-opacity="0.1"/>
<circle cx="3.5" cy="3.5" r="3.5" transform="matrix(-1 0 0 1 312 181)" fill="#E7F0FC" fill-opacity="0.1"/>
<circle cx="3.5" cy="3.5" r="3.5" transform="matrix(-1 0 0 1 312 202)" fill="#E7F0FC" fill-opacity="0.1"/>
<circle cx="3.5" cy="3.5" r="3.5" transform="matrix(-1 0 0 1 312 223)" fill="#E7F0FC" fill-opacity="0.1"/>
<circle cx="3.5" cy="3.5" r="3.5" transform="matrix(-1 0 0 1 291 76)" fill="#E7F0FC" fill-opacity="0.1"/>
<circle cx="3.5" cy="3.5" r="3.5" transform="matrix(-1 0 0 1 291 97)" fill="#E7F0FC" fill-opacity="0.1"/>
<circle cx="3.5" cy="3.5" r="3.5" transform="matrix(-1 0 0 1 291 118)" fill="#E7F0FC" fill-opacity="0.1"/>
<circle cx="3.5" cy="3.5" r="3.5" transform="matrix(-1 0 0 1 291 139)" fill="#E7F0FC" fill-opacity="0.1"/>
<circle cx="3.5" cy="3.5" r="3.5" transform="matrix(-1 0 0 1 291 160)" fill="#E7F0FC" fill-opacity="0.1"/>
<circle cx="3.5" cy="3.5" r="3.5" transform="matrix(-1 0 0 1 291 181)" fill="#E7F0FC" fill-opacity="0.1"/>
<circle cx="3.5" cy="3.5" r="3.5" transform="matrix(-1 0 0 1 291 202)" fill="#E7F0FC" fill-opacity="0.1"/>
<circle cx="3.5" cy="3.5" r="3.5" transform="matrix(-1 0 0 1 291 223)" fill="#E7F0FC" fill-opacity="0.1"/>
<circle cx="3.5" cy="3.5" r="3.5" transform="matrix(-1 0 0 1 270 76)" fill="#E7F0FC" fill-opacity="0.1"/>
<circle cx="3.5" cy="3.5" r="3.5" transform="matrix(-1 0 0 1 270 97)" fill="#E7F0FC" fill-opacity="0.1"/>
<circle cx="3.5" cy="3.5" r="3.5" transform="matrix(-1 0 0 1 270 118)" fill="#E7F0FC" fill-opacity="0.1"/>
<circle cx="3.5" cy="3.5" r="3.5" transform="matrix(-1 0 0 1 270 139)" fill="#E7F0FC" fill-opacity="0.1"/>
<circle cx="3.5" cy="3.5" r="3.5" transform="matrix(-1 0 0 1 270 160)" fill="#E7F0FC" fill-opacity="0.1"/>
<circle cx="3.5" cy="3.5" r="3.5" transform="matrix(-1 0 0 1 270 181)" fill="#E7F0FC" fill-opacity="0.1"/>
<circle cx="3.5" cy="3.5" r="3.5" transform="matrix(-1 0 0 1 270 202)" fill="#E7F0FC" fill-opacity="0.1"/>
<circle cx="3.5" cy="3.5" r="3.5" transform="matrix(-1 0 0 1 270 223)" fill="#E7F0FC" fill-opacity="0.1"/>
<circle cx="3.5" cy="3.5" r="3.5" transform="matrix(-1 0 0 1 249 76)" fill="#E7F0FC" fill-opacity="0.1"/>
<circle cx="3.5" cy="3.5" r="3.5" transform="matrix(-1 0 0 1 249 97)" fill="#E7F0FC" fill-opacity="0.1"/>
<circle cx="3.5" cy="3.5" r="3.5" transform="matrix(-1 0 0 1 249 118)" fill="#E7F0FC" fill-opacity="0.1"/>
<circle cx="3.5" cy="3.5" r="3.5" transform="matrix(-1 0 0 1 249 139)" fill="#E7F0FC" fill-opacity="0.1"/>
<circle cx="3.5" cy="3.5" r="3.5" transform="matrix(-1 0 0 1 249 160)" fill="#E7F0FC" fill-opacity="0.1"/>
<circle cx="3.5" cy="3.5" r="3.5" transform="matrix(-1 0 0 1 249 181)" fill="#E7F0FC" fill-opacity="0.1"/>
<circle cx="3.5" cy="3.5" r="3.5" transform="matrix(-1 0 0 1 249 202)" fill="#E7F0FC" fill-opacity="0.1"/>
<circle cx="3.5" cy="3.5" r="3.5" transform="matrix(-1 0 0 1 249 223)" fill="#E7F0FC" fill-opacity="0.1"/>
<circle cx="224.5" cy="524.5" r="71.5" fill="#0747A7"/>
<defs>
<linearGradient id="paint0_linear_134_287" x1="1341.97" y1="988.204" x2="784.479" y2="-292.784" gradientUnits="userSpaceOnUse">
<stop stop-color="#27C9CE"/>
<stop offset="1" stop-color="#002E9F"/>
</linearGradient>
</defs>
</svg>


