<svg width="44" height="43" viewBox="0 0 44 43" fill="none" xmlns="http://www.w3.org/2000/svg">
<g clip-path="url(#clip0_137_4302)">
<path d="M9.07275 0H34.436C39.3063 0 43.2544 3.94811 43.2544 8.81836V34.1816C43.2544 39.0519 39.3063 43 34.436 43H9.07275C4.20251 43 0.254395 39.0519 0.254395 34.1816V8.81836C0.254395 3.94811 4.20251 0 9.07275 0Z" fill="#FFFC00"/>
<path d="M7.63148 28.6807C7.75494 28.2717 8.34619 27.9836 8.34619 27.9836V27.9844C8.40078 27.9534 8.45117 27.9282 8.494 27.9072C9.47829 27.431 10.3501 26.8599 11.0858 26.209C11.6762 25.6866 12.1818 25.1113 12.5882 24.4983C13.0837 23.7516 13.3164 23.1276 13.4172 22.79C13.4726 22.57 13.4634 22.4826 13.4172 22.3676C13.3777 22.2718 13.2652 22.1786 13.2097 22.1366C12.8771 21.9015 12.3422 21.5546 12.0138 21.3421C11.7291 21.1582 11.4838 20.9986 11.3411 20.8995C10.8783 20.5762 10.5625 20.247 10.3761 19.8925C10.1342 19.4332 10.1057 18.9284 10.2938 18.4304C10.5474 17.7602 11.1731 17.3596 11.9684 17.3596C12.1456 17.3596 12.327 17.3797 12.5076 17.4192C12.9628 17.5175 13.3953 17.6796 13.7573 17.8207C13.7634 17.823 13.77 17.8238 13.7766 17.8229C13.7831 17.8221 13.7892 17.8196 13.7946 17.8158C13.7999 17.812 13.8042 17.8069 13.8071 17.801C13.8099 17.7951 13.8113 17.7886 13.8111 17.782C13.7724 16.8859 13.7296 15.6824 13.8287 14.5369C13.9186 13.5013 14.131 12.6287 14.4796 11.8687C14.8298 11.1053 15.2841 10.54 15.6402 10.1327C15.9804 9.74304 16.575 9.1711 17.4736 8.65712C18.7393 7.93317 20.1796 7.56616 21.7543 7.56616C23.3256 7.56616 24.7643 7.93317 26.0308 8.65628C26.9823 9.19966 27.5904 9.81442 27.8684 10.1327C28.2244 10.54 28.678 11.1053 29.0282 11.8687C29.3767 12.6287 29.59 13.5013 29.6791 14.5369C29.779 15.6841 29.7387 16.7935 29.6975 17.7812C29.6959 17.8106 29.7252 17.8307 29.7521 17.8207C30.1133 17.6796 30.5466 17.5175 31.001 17.4192C31.1815 17.3797 31.3629 17.3596 31.5402 17.3596C32.3355 17.3596 32.9612 17.7602 33.2148 18.4304C33.4029 18.9284 33.3744 19.4332 33.1325 19.8925C32.9452 20.247 32.6294 20.5762 32.1675 20.8995C32.0247 20.9986 31.7795 21.1582 31.4948 21.3421C31.1731 21.5504 30.6533 21.8872 30.319 22.1215C30.2779 22.1517 30.1368 22.2575 30.0923 22.3676C30.0444 22.4851 30.036 22.5742 30.0965 22.8076C30.2006 23.1486 30.4332 23.7642 30.9195 24.4983C31.3268 25.1113 31.8324 25.6866 32.4228 26.209C33.1585 26.8599 34.0303 27.431 35.0146 27.9072C35.0608 27.9299 35.1162 27.9584 35.1767 27.9928V27.992C35.1767 27.992 35.7646 28.2927 35.8754 28.6807C36.0392 29.2543 35.6033 29.7909 35.1565 30.079C34.4275 30.5485 33.5398 30.8013 33.025 30.939C32.8822 30.9768 32.752 31.0121 32.6336 31.049C32.5597 31.0734 32.3741 31.1431 32.2952 31.2447C32.1952 31.3732 32.1835 31.5328 32.1474 31.7117C32.0902 32.0132 31.9651 32.3886 31.5914 32.6456C31.1815 32.9294 30.66 32.9496 29.9999 32.9748C29.3095 33.0017 28.4495 33.0344 27.4669 33.3586C27.0109 33.5098 26.5977 33.7634 26.1198 34.0565C25.1212 34.6704 23.8783 35.4339 21.7543 35.4339C19.6295 35.4339 18.3781 34.6662 17.3728 34.049C16.8975 33.7575 16.4868 33.5056 16.0417 33.3586C15.0582 33.0336 14.1991 33.0008 13.5087 32.9748C12.8486 32.9496 12.327 32.9294 11.9164 32.6456C11.5174 32.3701 11.4015 31.9594 11.3495 31.6487C11.3218 31.495 11.3024 31.3581 11.2143 31.2447C11.1395 31.1481 10.9682 31.0809 10.8876 31.0524C10.7658 31.0146 10.6314 30.9785 10.4827 30.939C9.96793 30.8013 9.32293 30.6383 8.53767 30.1949C7.59789 29.6641 7.53406 29.0049 7.63148 28.6807Z" fill="white"/>
<path d="M8.92314 29.4928C10.2098 30.2033 11.0647 30.1277 11.7299 30.5552C12.2951 30.9188 11.9609 31.7032 12.3715 31.9863C12.8754 32.3348 14.367 31.9619 16.2919 32.5977C17.8801 33.1226 18.8938 34.6326 21.7534 34.6326C24.619 34.6326 25.6024 33.1301 27.2141 32.5977C29.1399 31.9619 30.6306 32.3348 31.1353 31.9863C31.5452 31.7032 31.2118 30.9188 31.7761 30.5552C32.4413 30.1277 33.2971 30.2033 34.5829 29.4928C35.4017 29.0409 34.9373 28.7604 34.6644 28.6286C30.0041 26.3728 29.2616 22.8891 29.228 22.6271C29.1877 22.3146 29.1432 22.0686 29.4884 21.7494C29.821 21.442 31.2983 20.5283 31.7073 20.2419C32.3859 19.7691 32.684 19.2954 32.464 18.7142C32.3128 18.3128 31.9357 18.1608 31.5393 18.1608C31.4158 18.1608 31.2907 18.1759 31.1698 18.2019C30.4257 18.364 29.7026 18.7361 29.2843 18.8377C29.2272 18.8511 29.176 18.8578 29.1306 18.8578C28.9089 18.8578 28.83 18.7453 28.8451 18.4908C28.8929 17.6762 29.008 16.0889 28.8804 14.6057C28.704 12.5657 28.0455 11.5546 27.2637 10.6601C26.8882 10.2301 25.1254 8.36735 21.7534 8.36735C18.3722 8.36735 16.6178 10.2301 16.2424 10.6601C15.4605 11.5546 14.8021 12.5657 14.6265 14.6057C14.498 16.0889 14.6089 17.677 14.661 18.4908C14.6786 18.7587 14.598 18.8578 14.3754 18.8578C14.3301 18.8578 14.2788 18.8511 14.2217 18.8377C13.8035 18.7361 13.0812 18.364 12.3363 18.2019C12.2153 18.1759 12.0902 18.1608 11.9667 18.1608C11.5703 18.1608 11.1941 18.3128 11.0421 18.7142C10.822 19.2954 11.1202 19.7691 11.7988 20.2419C12.2086 20.5283 13.6851 21.442 14.0185 21.7494C14.3628 22.0686 14.3183 22.3146 14.2788 22.6271C14.2452 22.8891 13.502 26.3728 8.84168 28.6286C8.56873 28.7604 8.1043 29.0409 8.92314 29.4928ZM20.9934 6.71118H22.5118C23.9463 6.81364 25.2732 7.20921 26.4666 7.89116C27.477 8.46813 28.1463 9.11313 28.531 9.55237C29.454 10.6081 30.3383 11.9333 30.5567 14.4613C30.6188 15.1793 30.6339 15.9142 30.623 16.602C30.686 16.5861 30.749 16.5718 30.8128 16.5575C31.0547 16.5046 31.2991 16.4786 31.5393 16.4786C32.6974 16.4786 33.6557 17.1068 34.0378 18.1188C34.3141 18.8486 34.2688 19.6246 33.911 20.3032C33.6574 20.7853 33.2517 21.217 32.6706 21.6218C32.516 21.7301 32.2767 21.8855 31.9735 22.082C31.8097 22.1878 31.5704 22.3432 31.3352 22.4977C31.2999 22.5229 31.1731 22.6153 31.1311 22.7035C31.0824 22.8043 31.0807 22.9126 31.153 23.1125C31.2773 23.3871 31.4553 23.7222 31.7073 24.0917C32.4572 25.1877 33.5289 26.1158 34.897 26.8574C35.6226 27.2437 36.376 27.4982 36.6943 28.3632C36.7656 28.5572 36.8018 28.7588 36.8018 28.9628C36.8009 29.4474 36.596 29.9446 36.1677 30.3847L36.1668 30.3839C35.9661 30.5997 35.7142 30.7912 35.3959 30.9659C34.6492 31.3782 34.0143 31.5806 33.5146 31.7192C33.4273 31.7452 33.224 31.8116 33.135 31.8889C32.9124 32.0837 32.9444 32.3768 32.6479 32.8051C32.469 33.0722 32.2616 33.2536 32.0919 33.3712C31.4704 33.8003 30.7717 33.8272 30.0326 33.8558C29.3641 33.881 28.6074 33.9104 27.7415 34.1959C27.3837 34.3143 27.0117 34.5428 26.58 34.8082C25.652 35.3784 24.4157 36.1376 22.4597 36.2888H21.048C19.0895 36.1368 17.8448 35.3742 16.9109 34.8006C16.4826 34.5377 16.1122 34.311 15.7637 34.1959C14.8995 33.9095 14.1419 33.881 13.4734 33.8558C12.7344 33.8272 12.0364 33.8003 11.415 33.3712C11.2193 33.236 10.9749 33.0168 10.7809 32.6808C10.5684 32.3189 10.5734 32.0635 10.3736 31.8889C10.2921 31.8175 10.1124 31.7562 10.0166 31.7259C9.51272 31.5874 8.86939 31.3858 8.11018 30.9659C7.7734 30.7803 7.50969 30.577 7.30309 30.3452C7.30057 30.3427 7.29805 30.3393 7.29553 30.3368C6.72359 29.7212 6.57998 28.9998 6.8143 28.3632C7.02342 27.7946 7.4215 27.4898 7.87502 27.2378C7.94961 27.1946 8.0258 27.1543 8.10345 27.1169C8.23867 27.0472 8.37641 26.9791 8.51498 26.9077C9.92844 26.1586 11.032 25.2129 11.7988 24.0917C12.0574 23.713 12.2372 23.3712 12.3615 23.0932C12.427 22.9059 12.4245 22.8009 12.3774 22.7035C12.3421 22.6296 12.2472 22.5523 12.1969 22.5154C11.9541 22.3549 11.7022 22.1912 11.5325 22.082C11.2302 21.8855 10.9908 21.7301 10.8355 21.6218C10.2551 21.217 9.84949 20.7853 9.59502 20.3032C9.23725 19.6246 9.19189 18.8486 9.4682 18.1188C9.85117 17.1068 10.8086 16.4786 11.9667 16.4786C12.2069 16.4786 12.4513 16.5046 12.694 16.5575C12.7579 16.5718 12.8209 16.5861 12.883 16.602C12.8729 15.9142 12.8872 15.1793 12.9494 14.4613C13.1677 11.9333 14.0521 10.6081 14.9759 9.55237C15.3605 9.11229 16.0299 8.46645 17.0352 7.892C18.2278 7.20921 19.5564 6.81364 20.9934 6.71118Z" fill="black"/>
</g>
<defs>
<clipPath id="clip0_137_4302">
<rect width="43" height="43" fill="white" transform="matrix(-1 0 0 1 43.2544 0)"/>
</clipPath>
</defs>
</svg>
