<svg width="64" height="64" viewBox="0 0 64 64" fill="none" xmlns="http://www.w3.org/2000/svg">
<rect x="0.44928" y="0.272461" width="62.8986" height="62.8986" rx="15" fill="#FFF7E3"/>
<path d="M31.5677 17.2488C29.1771 17.2315 26.7427 18.1561 25.1668 19.99C23.769 21.4697 23.2412 23.5672 23.3115 25.5589C23.3055 26.5819 23.3179 27.6046 23.3215 28.6274C22.3421 28.3842 21.3486 27.7034 20.3114 28.0405C19.4278 28.3029 19.0591 29.4569 19.5928 30.1969C20.1675 30.9485 21.0608 31.3773 21.807 31.9374C22.1741 32.2372 22.6689 32.4512 22.942 32.8365C22.9418 33.7597 22.4574 34.6144 21.9984 35.3916C20.88 37.1505 19.1324 38.4952 17.2614 39.4242C16.7838 39.631 16.3441 40.2523 16.7672 40.7229C17.5389 41.4467 18.631 41.6777 19.6038 42.0191C20.0129 42.1469 20.6186 42.2868 20.5802 42.8352C20.6472 43.4193 21.0208 44.0474 21.6777 44.0498C23.251 44.2316 24.9328 44.1541 26.3428 44.9972C27.7251 45.7977 29.1479 46.6904 30.7901 46.7877C32.4264 46.941 34.112 46.6102 35.5146 45.7376C36.5597 45.1612 37.5785 44.4432 38.8031 44.3265C39.8332 44.0855 40.9417 44.2964 41.9375 43.9125C42.5755 43.6393 42.4894 42.8646 42.7576 42.3522C43.2636 42.0031 43.9106 41.9629 44.4742 41.7323C45.2109 41.4385 46.1398 41.2129 46.526 40.4508C46.7555 39.8437 46.064 39.5119 45.6362 39.2757C43.3621 38.1019 41.3136 36.294 40.4163 33.842C40.3172 33.4552 39.9609 32.8761 40.4331 32.5921C41.4229 31.7576 42.7138 31.2782 43.5333 30.251C44.1534 29.4749 43.7214 28.1428 42.7058 27.9885C41.721 27.8326 40.8024 28.3668 39.8778 28.6134C39.797 26.9088 39.9781 25.1699 39.7227 23.4685C39.2373 20.7092 37.0221 18.4412 34.3646 17.6485C33.4611 17.3685 32.5129 17.2414 31.5677 17.2488Z" stroke="#FF9900" stroke-width="3" stroke-linejoin="round"/>
</svg>
