<svg width="974" height="154" viewBox="0 0 974 154" fill="none" xmlns="http://www.w3.org/2000/svg">
<path d="M1099 133C1099 71.6964 1049.3 22 988 22L-4.85197e-06 22C-2.1723e-06 83.3036 49.6964 133 111 133L1099 133Z" fill="url(#paint0_linear_134_287)"/>
<circle cx="3.5" cy="3.5" r="3.5" transform="matrix(-1 0 0 1 207 0)" fill="#E7F0FC" fill-opacity="0.1"/>
<circle cx="3.5" cy="3.5" r="3.5" transform="matrix(-1 0 0 1 207 21)" fill="#E7F0FC" fill-opacity="0.1"/>
<circle cx="3.5" cy="3.5" r="3.5" transform="matrix(-1 0 0 1 207 42)" fill="#E7F0FC" fill-opacity="0.1"/>
<circle cx="3.5" cy="3.5" r="3.5" transform="matrix(-1 0 0 1 207 63)" fill="#E7F0FC" fill-opacity="0.1"/>
<circle cx="3.5" cy="3.5" r="3.5" transform="matrix(-1 0 0 1 207 84)" fill="#E7F0FC" fill-opacity="0.1"/>
<circle cx="3.5" cy="3.5" r="3.5" transform="matrix(-1 0 0 1 207 105)" fill="#E7F0FC" fill-opacity="0.1"/>
<circle cx="3.5" cy="3.5" r="3.5" transform="matrix(-1 0 0 1 207 126)" fill="#E7F0FC" fill-opacity="0.1"/>
<circle cx="3.5" cy="3.5" r="3.5" transform="matrix(-1 0 0 1 207 147)" fill="#E7F0FC" fill-opacity="0.1"/>
<circle cx="3.5" cy="3.5" r="3.5" transform="matrix(-1 0 0 1 186 0)" fill="#E7F0FC" fill-opacity="0.1"/>
<circle cx="3.5" cy="3.5" r="3.5" transform="matrix(-1 0 0 1 186 21)" fill="#E7F0FC" fill-opacity="0.1"/>
<circle cx="3.5" cy="3.5" r="3.5" transform="matrix(-1 0 0 1 186 42)" fill="#E7F0FC" fill-opacity="0.1"/>
<circle cx="3.5" cy="3.5" r="3.5" transform="matrix(-1 0 0 1 186 63)" fill="#E7F0FC" fill-opacity="0.1"/>
<circle cx="3.5" cy="3.5" r="3.5" transform="matrix(-1 0 0 1 186 84)" fill="#E7F0FC" fill-opacity="0.1"/>
<circle cx="3.5" cy="3.5" r="3.5" transform="matrix(-1 0 0 1 186 105)" fill="#E7F0FC" fill-opacity="0.1"/>
<circle cx="3.5" cy="3.5" r="3.5" transform="matrix(-1 0 0 1 186 126)" fill="#E7F0FC" fill-opacity="0.1"/>
<circle cx="3.5" cy="3.5" r="3.5" transform="matrix(-1 0 0 1 186 147)" fill="#E7F0FC" fill-opacity="0.1"/>
<circle cx="3.5" cy="3.5" r="3.5" transform="matrix(-1 0 0 1 165 0)" fill="#E7F0FC" fill-opacity="0.1"/>
<circle cx="3.5" cy="3.5" r="3.5" transform="matrix(-1 0 0 1 165 21)" fill="#E7F0FC" fill-opacity="0.1"/>
<circle cx="3.5" cy="3.5" r="3.5" transform="matrix(-1 0 0 1 165 42)" fill="#E7F0FC" fill-opacity="0.1"/>
<circle cx="3.5" cy="3.5" r="3.5" transform="matrix(-1 0 0 1 165 63)" fill="#E7F0FC" fill-opacity="0.1"/>
<circle cx="3.5" cy="3.5" r="3.5" transform="matrix(-1 0 0 1 165 84)" fill="#E7F0FC" fill-opacity="0.1"/>
<circle cx="3.5" cy="3.5" r="3.5" transform="matrix(-1 0 0 1 165 105)" fill="#E7F0FC" fill-opacity="0.1"/>
<circle cx="3.5" cy="3.5" r="3.5" transform="matrix(-1 0 0 1 165 126)" fill="#E7F0FC" fill-opacity="0.1"/>
<circle cx="3.5" cy="3.5" r="3.5" transform="matrix(-1 0 0 1 165 147)" fill="#E7F0FC" fill-opacity="0.1"/>
<circle cx="3.5" cy="3.5" r="3.5" transform="matrix(-1 0 0 1 144 0)" fill="#E7F0FC" fill-opacity="0.1"/>
<circle cx="3.5" cy="3.5" r="3.5" transform="matrix(-1 0 0 1 144 21)" fill="#E7F0FC" fill-opacity="0.1"/>
<circle cx="3.5" cy="3.5" r="3.5" transform="matrix(-1 0 0 1 144 42)" fill="#E7F0FC" fill-opacity="0.1"/>
<circle cx="3.5" cy="3.5" r="3.5" transform="matrix(-1 0 0 1 144 63)" fill="#E7F0FC" fill-opacity="0.1"/>
<circle cx="3.5" cy="3.5" r="3.5" transform="matrix(-1 0 0 1 144 84)" fill="#E7F0FC" fill-opacity="0.1"/>
<circle cx="3.5" cy="3.5" r="3.5" transform="matrix(-1 0 0 1 144 105)" fill="#E7F0FC" fill-opacity="0.1"/>
<circle cx="3.5" cy="3.5" r="3.5" transform="matrix(-1 0 0 1 144 126)" fill="#E7F0FC" fill-opacity="0.1"/>
<circle cx="3.5" cy="3.5" r="3.5" transform="matrix(-1 0 0 1 144 147)" fill="#E7F0FC" fill-opacity="0.1"/>
<circle cx="3.5" cy="3.5" r="3.5" transform="matrix(-1 0 0 1 123 0)" fill="#E7F0FC" fill-opacity="0.1"/>
<circle cx="3.5" cy="3.5" r="3.5" transform="matrix(-1 0 0 1 123 21)" fill="#E7F0FC" fill-opacity="0.1"/>
<circle cx="3.5" cy="3.5" r="3.5" transform="matrix(-1 0 0 1 123 42)" fill="#E7F0FC" fill-opacity="0.1"/>
<circle cx="3.5" cy="3.5" r="3.5" transform="matrix(-1 0 0 1 123 63)" fill="#E7F0FC" fill-opacity="0.1"/>
<circle cx="3.5" cy="3.5" r="3.5" transform="matrix(-1 0 0 1 123 84)" fill="#E7F0FC" fill-opacity="0.1"/>
<circle cx="3.5" cy="3.5" r="3.5" transform="matrix(-1 0 0 1 123 105)" fill="#E7F0FC" fill-opacity="0.1"/>
<circle cx="3.5" cy="3.5" r="3.5" transform="matrix(-1 0 0 1 123 126)" fill="#E7F0FC" fill-opacity="0.1"/>
<circle cx="3.5" cy="3.5" r="3.5" transform="matrix(-1 0 0 1 123 147)" fill="#E7F0FC" fill-opacity="0.1"/>
<circle cx="3.5" cy="3.5" r="3.5" transform="matrix(-1 0 0 1 102 0)" fill="#E7F0FC" fill-opacity="0.1"/>
<circle cx="3.5" cy="3.5" r="3.5" transform="matrix(-1 0 0 1 102 21)" fill="#E7F0FC" fill-opacity="0.1"/>
<circle cx="3.5" cy="3.5" r="3.5" transform="matrix(-1 0 0 1 102 42)" fill="#E7F0FC" fill-opacity="0.1"/>
<circle cx="3.5" cy="3.5" r="3.5" transform="matrix(-1 0 0 1 102 63)" fill="#E7F0FC" fill-opacity="0.1"/>
<circle cx="3.5" cy="3.5" r="3.5" transform="matrix(-1 0 0 1 102 84)" fill="#E7F0FC" fill-opacity="0.1"/>
<circle cx="3.5" cy="3.5" r="3.5" transform="matrix(-1 0 0 1 102 105)" fill="#E7F0FC" fill-opacity="0.1"/>
<circle cx="3.5" cy="3.5" r="3.5" transform="matrix(-1 0 0 1 102 126)" fill="#E7F0FC" fill-opacity="0.1"/>
<circle cx="3.5" cy="3.5" r="3.5" transform="matrix(-1 0 0 1 102 147)" fill="#E7F0FC" fill-opacity="0.1"/>
<circle cx="3.5" cy="3.5" r="3.5" transform="matrix(-1 0 0 1 81 0)" fill="#E7F0FC" fill-opacity="0.1"/>
<circle cx="3.5" cy="3.5" r="3.5" transform="matrix(-1 0 0 1 81 21)" fill="#E7F0FC" fill-opacity="0.1"/>
<circle cx="3.5" cy="3.5" r="3.5" transform="matrix(-1 0 0 1 81 42)" fill="#E7F0FC" fill-opacity="0.1"/>
<circle cx="3.5" cy="3.5" r="3.5" transform="matrix(-1 0 0 1 81 63)" fill="#E7F0FC" fill-opacity="0.1"/>
<circle cx="3.5" cy="3.5" r="3.5" transform="matrix(-1 0 0 1 81 84)" fill="#E7F0FC" fill-opacity="0.1"/>
<circle cx="3.5" cy="3.5" r="3.5" transform="matrix(-1 0 0 1 81 105)" fill="#E7F0FC" fill-opacity="0.1"/>
<circle cx="3.5" cy="3.5" r="3.5" transform="matrix(-1 0 0 1 81 126)" fill="#E7F0FC" fill-opacity="0.1"/>
<circle cx="3.5" cy="3.5" r="3.5" transform="matrix(-1 0 0 1 81 147)" fill="#E7F0FC" fill-opacity="0.1"/>
<circle cx="3.5" cy="3.5" r="3.5" transform="matrix(-1 0 0 1 60 0)" fill="#E7F0FC" fill-opacity="0.1"/>
<circle cx="3.5" cy="3.5" r="3.5" transform="matrix(-1 0 0 1 60 21)" fill="#E7F0FC" fill-opacity="0.1"/>
<circle cx="3.5" cy="3.5" r="3.5" transform="matrix(-1 0 0 1 60 42)" fill="#E7F0FC" fill-opacity="0.1"/>
<circle cx="3.5" cy="3.5" r="3.5" transform="matrix(-1 0 0 1 60 63)" fill="#E7F0FC" fill-opacity="0.1"/>
<circle cx="3.5" cy="3.5" r="3.5" transform="matrix(-1 0 0 1 60 84)" fill="#E7F0FC" fill-opacity="0.1"/>
<circle cx="3.5" cy="3.5" r="3.5" transform="matrix(-1 0 0 1 60 105)" fill="#E7F0FC" fill-opacity="0.1"/>
<circle cx="3.5" cy="3.5" r="3.5" transform="matrix(-1 0 0 1 60 126)" fill="#E7F0FC" fill-opacity="0.1"/>
<circle cx="3.5" cy="3.5" r="3.5" transform="matrix(-1 0 0 1 60 147)" fill="#E7F0FC" fill-opacity="0.1"/>
<circle cx="3.5" cy="3.5" r="3.5" transform="matrix(-1 0 0 1 39 0)" fill="#E7F0FC" fill-opacity="0.1"/>
<circle cx="3.5" cy="3.5" r="3.5" transform="matrix(-1 0 0 1 39 21)" fill="#E7F0FC" fill-opacity="0.1"/>
<circle cx="3.5" cy="3.5" r="3.5" transform="matrix(-1 0 0 1 39 42)" fill="#E7F0FC" fill-opacity="0.1"/>
<circle cx="3.5" cy="3.5" r="3.5" transform="matrix(-1 0 0 1 39 63)" fill="#E7F0FC" fill-opacity="0.1"/>
<circle cx="3.5" cy="3.5" r="3.5" transform="matrix(-1 0 0 1 39 84)" fill="#E7F0FC" fill-opacity="0.1"/>
<circle cx="3.5" cy="3.5" r="3.5" transform="matrix(-1 0 0 1 39 105)" fill="#E7F0FC" fill-opacity="0.1"/>
<circle cx="3.5" cy="3.5" r="3.5" transform="matrix(-1 0 0 1 39 126)" fill="#E7F0FC" fill-opacity="0.1"/>
<circle cx="3.5" cy="3.5" r="3.5" transform="matrix(-1 0 0 1 39 147)" fill="#E7F0FC" fill-opacity="0.1"/>
<circle cx="3.5" cy="3.5" r="3.5" transform="matrix(-1 0 0 1 18 0)" fill="#E7F0FC" fill-opacity="0.1"/>
<circle cx="3.5" cy="3.5" r="3.5" transform="matrix(-1 0 0 1 18 21)" fill="#E7F0FC" fill-opacity="0.1"/>
<circle cx="3.5" cy="3.5" r="3.5" transform="matrix(-1 0 0 1 18 42)" fill="#E7F0FC" fill-opacity="0.1"/>
<circle cx="3.5" cy="3.5" r="3.5" transform="matrix(-1 0 0 1 18 63)" fill="#E7F0FC" fill-opacity="0.1"/>
<circle cx="3.5" cy="3.5" r="3.5" transform="matrix(-1 0 0 1 18 84)" fill="#E7F0FC" fill-opacity="0.1"/>
<circle cx="3.5" cy="3.5" r="3.5" transform="matrix(-1 0 0 1 18 105)" fill="#E7F0FC" fill-opacity="0.1"/>
<circle cx="3.5" cy="3.5" r="3.5" transform="matrix(-1 0 0 1 18 126)" fill="#E7F0FC" fill-opacity="0.1"/>
<circle cx="3.5" cy="3.5" r="3.5" transform="matrix(-1 0 0 1 18 147)" fill="#E7F0FC" fill-opacity="0.1"/>
<defs>
<linearGradient id="paint0_linear_134_287" x1="1024.24" y1="150.745" x2="1009.56" y2="-46.6629" gradientUnits="userSpaceOnUse">
<stop stop-color="#27C9CE"/>
<stop offset="1" stop-color="#002E9F"/>
</linearGradient>
</defs>
</svg>
