<svg width="64" height="64" viewBox="0 0 64 64" fill="none" xmlns="http://www.w3.org/2000/svg">
<rect x="0.470764" y="0.966064" width="62.8986" height="62.8986" rx="15" fill="#F1F7FF"/>
<g clip-path="url(#clip0_76_1510)">
<path d="M48.0103 16.4504H32.0728H30.5794H22.6695C21.5144 16.4504 20.4012 16.9359 19.6154 17.7824L13.2552 24.6331C12.5374 25.4064 12.142 26.4134 12.142 27.4684V46.09C12.142 47.4685 13.2635 48.5899 14.642 48.5899H30.5794H32.0727H48.0101C49.3886 48.5899 50.5101 47.4685 50.5101 46.09V18.9504C50.5102 17.572 49.3887 16.4504 48.0103 16.4504ZM20.2239 21.2097V25.4516H16.2857L20.2239 21.2097ZM28.0795 45.8123H14.9198V28.2293H21.5503C22.0503 28.2293 22.4873 27.9643 22.7319 27.5678C22.9006 27.3379 23.0016 27.055 23.0016 26.7479V19.2282H28.0795V45.8123ZM32.0728 45.8123H30.8572V19.2282H32.0728H47.7324V45.8123H32.0728Z" fill="#2639ED"/>
<path d="M45.4145 23.3121C43.8331 21.7307 41.2597 21.7306 39.6783 23.3121L39.3454 23.645L39.0125 23.3121C37.4426 21.7423 34.8956 21.7306 33.3112 23.2776C32.5993 23.9142 32.1816 24.9402 32.1636 26.1036C32.1451 27.2987 32.5569 28.3765 33.295 29.0672L38.3629 34.1349C38.3631 34.1352 38.3632 34.1352 38.3633 34.1354C38.6345 34.4067 38.9899 34.5422 39.3453 34.5422C39.7007 34.5422 40.0562 34.4066 40.3273 34.1354L45.4144 29.0484C46.996 27.467 46.996 24.8936 45.4145 23.3121ZM43.4506 27.0843L39.3455 31.1893L35.2405 27.0843L35.1953 27.041C35.0648 26.9218 34.9355 26.5781 34.941 26.152C34.9469 25.6803 35.1057 25.3976 35.1628 25.348L35.2403 25.2762C35.7388 24.7778 36.5498 24.7779 37.0483 25.2762L38.3628 26.5907C38.363 26.5909 38.3631 26.591 38.3632 26.5912C38.6344 26.8624 38.9899 26.9979 39.3454 26.9979C39.7008 26.9979 40.0563 26.8624 40.3275 26.5912C40.3277 26.591 40.3278 26.5909 40.328 26.5907L41.6425 25.2762C42.1409 24.7778 42.9521 24.7779 43.4505 25.2762C43.949 25.7748 43.949 26.5859 43.4506 27.0843Z" fill="#2639ED"/>
<path d="M43.7022 36.2678H35.188C34.421 36.2678 33.7991 36.8897 33.7991 37.6566C33.7991 38.4236 34.421 39.0455 35.188 39.0455H43.7022C44.4692 39.0455 45.091 38.4236 45.091 37.6566C45.091 36.8897 44.4693 36.2678 43.7022 36.2678Z" fill="#2639ED"/>
<path d="M43.7022 40.1565H35.188C34.421 40.1565 33.7991 40.7783 33.7991 41.5453C33.7991 42.3123 34.421 42.9341 35.188 42.9341H43.7022C44.4692 42.9341 45.091 42.3123 45.091 41.5453C45.0911 40.7783 44.4693 40.1565 43.7022 40.1565Z" fill="#2639ED"/>
</g>
<defs>
<clipPath id="clip0_76_1510">
<rect width="38.3681" height="38.3681" fill="white" transform="translate(12.142 13.3362)"/>
</clipPath>
</defs>
</svg>
