<svg width="44" height="43" viewBox="0 0 44 43" fill="none" xmlns="http://www.w3.org/2000/svg">
<g clip-path="url(#clip0_159_656)">
<path fill-rule="evenodd" clip-rule="evenodd" d="M21.7482 0C9.89559 0 0.254395 9.64389 0.254395 21.4998C0.254395 26.2017 1.77072 30.5623 4.34836 34.1016L1.66944 42.0896L9.93337 39.4485C13.3323 41.6983 17.3885 43 21.7606 43C33.6132 43 43.2544 33.3558 43.2544 21.5002C43.2544 9.64427 33.6132 0.000355403 21.7606 0.000355403L21.7482 0ZM15.7459 10.9209C15.329 9.92249 15.0131 9.88469 14.3815 9.859C14.1664 9.84652 13.9268 9.83405 13.6611 9.83405C12.8395 9.83405 11.9804 10.0741 11.4622 10.6049C10.8306 11.2495 9.26363 12.7534 9.26363 15.8376C9.26363 18.9218 11.5128 21.9047 11.816 22.322C12.1319 22.7387 16.2009 29.1597 22.5188 31.7765C27.4594 33.8241 28.9255 33.6343 30.0499 33.3943C31.6925 33.0404 33.7523 31.8265 34.2705 30.3607C34.7886 28.8943 34.7886 27.6429 34.6367 27.3775C34.4851 27.1121 34.0679 26.9608 33.4363 26.6444C32.8047 26.3284 29.7339 24.8116 29.1526 24.6093C28.5838 24.3946 28.0407 24.4706 27.6113 25.0773C27.0047 25.9242 26.411 26.7839 25.9306 27.3019C25.5515 27.7064 24.932 27.757 24.4142 27.5419C23.7192 27.2516 21.7735 26.5684 19.3724 24.4324C17.5148 22.7769 16.2512 20.7168 15.885 20.0976C15.5184 19.4658 15.8472 19.0987 16.1374 18.7577C16.4534 18.3657 16.7566 18.0878 17.0725 17.7211C17.3885 17.3547 17.5654 17.165 17.7676 16.7351C17.9826 16.3181 17.8307 15.8883 17.6791 15.5722C17.5276 15.2562 16.2641 12.172 15.7459 10.9209Z" fill="#67C15E"/>
</g>
<defs>
<clipPath id="clip0_159_656">
<rect width="43" height="43" fill="white" transform="translate(0.254395)"/>
</clipPath>
</defs>
</svg>
